{"glyphs":{"0":{"ha":401,"x_min":56,"x_max":346,"o":"m 200 -4 q 93 38 131 -4 q 56 150 56 81 l 56 775 q 93 888 56 846 q 200 931 131 931 q 308 888 269 931 q 346 775 346 846 l 346 150 q 308 38 346 81 q 200 -4 269 -4 m 150 153 q 160 102 150 121 q 200 83 169 83 q 240 102 231 83 q 250 153 250 121 l 250 293 l 150 293 l 150 153 m 250 411 l 250 774 q 240 823 250 806 q 200 840 231 840 q 160 823 169 840 q 150 774 150 806 l 150 411 l 250 411 z "},"1":{"ha":310,"x_min":56,"x_max":254,"o":"m 160 790 l 90 760 l 56 842 l 160 890 l 160 917 l 254 917 l 254 0 l 160 0 l 160 790 z "},"2":{"ha":401,"x_min":56,"x_max":346,"o":"m 61 253 q 100 376 61 328 q 203 458 139 425 q 238 492 225 469 q 251 542 251 515 l 251 774 q 242 823 251 806 q 201 840 232 840 q 161 823 171 840 q 151 774 151 806 l 151 629 l 56 629 l 56 775 q 94 888 56 846 q 201 931 132 931 q 308 888 271 931 q 346 775 346 846 l 346 542 q 317 445 346 485 q 244 383 289 406 q 181 335 206 363 q 156 263 156 308 l 156 94 l 335 94 l 335 0 l 61 0 l 61 253 z "},"3":{"ha":408,"x_min":56,"x_max":353,"o":"m 208 -14 q 101 28 139 -14 q 63 142 63 71 l 63 288 l 158 288 l 158 143 q 168 94 158 111 q 208 76 178 76 q 249 94 239 76 q 258 143 258 111 l 258 382 q 242 424 258 415 q 194 433 226 433 l 194 517 q 251 582 251 519 l 251 774 q 242 823 251 806 q 201 840 232 840 q 161 823 171 840 q 151 774 151 806 l 151 629 l 56 629 l 56 775 q 94 888 56 846 q 201 931 132 931 q 308 888 271 931 q 346 775 346 846 l 346 556 q 326 478 346 510 q 347 444 340 458 q 353 407 353 429 l 353 142 q 315 28 353 71 q 208 -14 278 -14 z "},"4":{"ha":472,"x_min":56,"x_max":417,"o":"m 231 343 l 56 343 l 56 917 l 150 917 l 150 438 l 231 438 l 231 554 l 325 554 l 325 438 l 417 438 l 417 343 l 325 343 l 325 54 l 231 54 l 231 343 z "},"5":{"ha":401,"x_min":56,"x_max":346,"o":"m 201 0 q 94 42 132 0 q 56 156 56 85 l 56 301 l 151 301 l 151 157 q 161 108 151 125 q 201 90 171 90 q 242 108 232 90 q 251 157 251 125 l 251 421 q 175 497 251 497 q 90 528 121 497 q 58 617 58 560 l 58 917 l 332 917 l 332 822 l 153 822 l 153 615 q 169 581 153 590 q 225 571 186 571 q 310 527 274 571 q 346 421 346 483 l 346 156 q 308 42 346 85 q 201 0 271 0 z "},"6":{"ha":401,"x_min":56,"x_max":346,"o":"m 200 -14 q 93 28 131 -14 q 56 140 56 71 l 56 775 q 93 888 56 846 q 200 931 131 931 q 308 888 269 931 q 346 775 346 846 l 346 628 l 250 628 l 250 774 q 240 823 250 806 q 200 840 231 840 q 160 823 169 840 q 150 774 150 806 l 150 586 q 200 593 175 593 q 308 551 269 593 q 346 438 346 508 l 346 140 q 308 28 346 71 q 200 -14 269 -14 m 150 143 q 160 92 150 111 q 200 74 169 74 q 240 92 231 74 q 250 143 250 111 l 250 436 q 240 485 250 468 q 200 503 231 503 q 160 485 169 503 q 150 436 150 468 l 150 143 z "},"7":{"ha":508,"x_min":56,"x_max":453,"o":"m 339 822 l 56 822 l 56 917 l 453 917 l 258 0 l 164 0 l 339 822 z "},"8":{"ha":401,"x_min":56,"x_max":346,"o":"m 200 -14 q 93 28 131 -14 q 56 140 56 71 l 56 340 q 90 451 56 408 q 56 561 56 494 l 56 775 q 93 888 56 846 q 200 931 131 931 q 308 888 269 931 q 346 775 346 846 l 346 561 q 310 451 346 494 q 346 340 346 408 l 346 140 q 308 28 346 71 q 200 -14 269 -14 m 150 143 q 160 92 150 111 q 200 74 169 74 q 240 92 231 74 q 250 143 250 111 l 250 339 q 240 388 250 371 q 200 406 231 406 q 160 388 169 406 q 150 339 150 371 l 150 143 m 150 564 q 160 515 150 533 q 200 496 169 496 q 240 512 231 496 q 250 564 250 528 l 250 774 q 240 823 250 806 q 200 840 231 840 q 160 823 169 840 q 150 774 150 806 l 150 564 z "},"9":{"ha":401,"x_min":56,"x_max":346,"o":"m 201 929 q 308 887 271 929 q 346 775 346 844 l 346 140 q 308 27 346 69 q 201 -15 271 -15 q 94 27 132 -15 q 56 140 56 69 l 56 288 l 151 288 l 151 142 q 161 92 151 110 q 201 75 171 75 q 242 92 232 75 q 251 142 251 110 l 251 329 q 201 322 226 322 q 94 365 132 322 q 56 478 56 407 l 56 775 q 94 887 56 844 q 201 929 132 929 m 151 479 q 161 430 151 447 q 201 413 171 413 q 242 430 232 413 q 251 479 251 447 l 251 772 q 242 823 251 804 q 201 842 232 842 q 161 823 171 842 q 151 772 151 804 l 151 479 z "}," ":{"ha":208,"x_min":0,"x_max":0,"o":""}," ":{"ha":208,"x_min":0,"x_max":0,"o":""},"A":{"ha":474,"x_min":56,"x_max":418,"o":"m 192 917 l 283 917 l 418 0 l 326 0 l 311 103 l 163 103 l 147 0 l 56 0 l 192 917 m 300 186 l 238 610 l 175 186 l 300 186 z "},"B":{"ha":399,"x_min":56,"x_max":343,"o":"m 56 917 l 171 917 q 290 881 250 917 q 331 786 331 844 l 331 563 q 319 519 331 533 q 272 492 308 506 q 343 393 343 471 l 343 142 q 305 33 343 67 q 171 0 267 0 l 56 0 l 56 917 m 150 85 q 219 90 200 86 q 243 103 238 93 q 249 142 249 114 l 249 393 q 227 427 249 421 q 150 433 206 433 l 150 85 m 150 518 q 217 525 199 518 q 235 563 235 532 l 235 786 q 219 824 235 817 q 150 831 203 831 l 150 518 z "},"C":{"ha":401,"x_min":56,"x_max":346,"o":"m 200 -14 q 93 28 131 -14 q 56 140 56 71 l 56 775 q 93 888 56 846 q 200 931 131 931 q 308 888 269 931 q 346 775 346 846 l 346 629 l 250 629 l 250 774 q 240 823 250 806 q 200 840 231 840 q 160 823 169 840 q 150 774 150 806 l 150 140 q 160 91 150 108 q 200 74 169 74 q 240 91 231 74 q 250 140 250 108 l 250 282 l 346 282 l 346 140 q 308 28 346 71 q 200 -14 269 -14 z "},"D":{"ha":399,"x_min":56,"x_max":343,"o":"m 56 917 l 171 917 q 304 880 265 917 q 343 768 343 843 l 343 149 q 304 36 343 72 q 171 0 265 0 l 56 0 l 56 917 m 150 85 q 217 92 196 85 q 243 111 238 99 q 249 149 249 124 l 249 768 q 243 806 249 793 q 217 824 238 818 q 150 831 196 831 l 150 85 z "},"E":{"ha":354,"x_min":56,"x_max":299,"o":"m 56 917 l 299 917 l 299 831 l 150 831 l 150 518 l 275 518 l 275 433 l 150 433 l 150 85 l 299 85 l 299 0 l 56 0 l 56 917 z "},"F":{"ha":354,"x_min":56,"x_max":299,"o":"m 56 917 l 299 917 l 299 831 l 150 831 l 150 518 l 275 518 l 275 433 l 150 433 l 150 0 l 56 0 l 56 917 z "},"G":{"ha":401,"x_min":56,"x_max":346,"o":"m 200 -14 q 93 28 131 -14 q 56 140 56 71 l 56 775 q 93 888 56 846 q 200 931 131 931 q 308 888 269 931 q 346 774 346 844 l 346 629 l 250 629 l 250 774 q 240 823 250 806 q 200 840 231 840 q 160 823 169 840 q 150 774 150 806 l 150 139 q 160 90 150 107 q 200 74 169 74 q 240 90 231 74 q 250 139 250 107 l 250 433 l 199 433 l 199 518 l 346 518 l 346 139 q 308 28 346 69 q 200 -14 271 -14 z "},"H":{"ha":436,"x_min":56,"x_max":381,"o":"m 56 917 l 151 917 l 151 518 l 285 518 l 285 917 l 381 917 l 381 0 l 285 0 l 285 433 l 151 433 l 151 0 l 56 0 l 56 917 z "},"I":{"ha":206,"x_min":56,"x_max":150,"o":"m 56 917 l 150 917 l 150 0 l 56 0 l 56 917 z "},"J":{"ha":404,"x_min":56,"x_max":349,"o":"m 203 -14 q 94 29 132 -14 q 56 143 56 72 l 56 282 l 150 282 l 150 144 q 203 75 150 75 q 244 94 233 75 q 254 144 254 113 l 254 831 l 167 831 l 167 917 l 349 917 l 349 144 q 311 30 349 74 q 203 -14 274 -14 z "},"K":{"ha":456,"x_min":56,"x_max":400,"o":"m 56 917 l 151 917 l 150 407 l 294 917 l 390 917 l 222 331 l 400 0 l 304 0 l 151 275 l 151 0 l 56 0 l 56 917 z "},"L":{"ha":354,"x_min":56,"x_max":299,"o":"m 56 917 l 150 917 l 150 85 l 299 85 l 299 0 l 56 0 l 56 917 z "},"M":{"ha":594,"x_min":56,"x_max":539,"o":"m 56 917 l 151 917 l 297 757 l 443 917 l 539 917 l 539 0 l 444 0 l 444 788 l 329 656 l 267 656 l 150 783 l 150 0 l 56 0 l 56 917 z "},"N":{"ha":442,"x_min":56,"x_max":386,"o":"m 56 917 l 150 917 l 150 747 l 292 415 l 292 917 l 386 917 l 386 0 l 292 0 l 292 183 l 150 506 l 150 0 l 56 0 l 56 917 z "},"O":{"ha":401,"x_min":56,"x_max":346,"o":"m 200 -4 q 93 38 131 -4 q 56 150 56 81 l 56 761 q 93 874 56 832 q 200 917 131 917 q 308 874 269 917 q 346 761 346 832 l 346 150 q 308 38 346 81 q 200 -4 269 -4 m 150 153 q 160 102 150 121 q 200 83 169 83 q 240 102 231 83 q 250 153 250 121 l 250 760 q 240 809 250 792 q 200 826 231 826 q 160 809 169 826 q 150 760 150 792 l 150 153 z "},"P":{"ha":386,"x_min":56,"x_max":331,"o":"m 56 917 l 172 917 q 292 884 253 917 q 331 776 331 851 l 331 561 q 288 472 331 511 q 172 433 246 433 l 150 433 l 150 0 l 56 0 l 56 917 m 150 519 q 208 522 192 519 q 230 532 224 524 q 236 561 236 540 l 236 776 q 230 814 236 803 q 207 828 224 825 q 150 831 190 831 l 150 519 z "},"Q":{"ha":407,"x_min":56,"x_max":351,"o":"m 256 -72 q 246 -22 256 -40 q 206 -4 236 -4 q 94 38 132 -4 q 56 150 56 79 l 56 761 q 93 874 56 832 q 200 917 131 917 q 308 874 269 917 q 346 761 346 832 l 346 150 q 313 43 346 83 q 351 -71 351 0 l 351 -119 l 256 -119 l 256 -72 m 150 153 q 160 102 150 121 q 200 83 169 83 q 240 102 231 83 q 250 153 250 121 l 250 760 q 240 809 250 792 q 200 826 231 826 q 160 809 169 826 q 150 760 150 792 l 150 153 z "},"R":{"ha":386,"x_min":56,"x_max":331,"o":"m 56 917 l 172 917 q 293 881 256 917 q 331 786 331 846 l 331 567 q 296 475 331 506 q 331 369 331 453 l 331 0 l 236 0 l 236 369 q 220 420 236 407 q 172 433 204 433 l 150 433 l 150 0 l 56 0 l 56 917 m 150 518 q 208 520 193 518 q 230 532 224 522 q 236 567 236 542 l 236 786 q 228 817 236 808 q 204 828 219 826 q 150 832 189 831 l 150 518 z "},"S":{"ha":403,"x_min":56,"x_max":347,"o":"m 201 -14 q 94 28 132 -14 q 56 140 56 71 l 56 282 l 151 282 l 151 143 q 161 92 151 111 q 201 74 171 74 q 242 92 232 74 q 251 143 251 111 l 251 349 q 200 428 251 406 q 92 497 126 458 q 57 599 57 535 l 57 774 q 94 888 57 844 q 201 931 132 931 q 309 888 271 931 q 347 774 347 844 l 347 629 l 251 629 l 251 774 q 242 823 251 806 q 201 840 232 840 q 161 823 171 840 q 151 774 151 806 l 151 599 q 200 525 151 543 q 346 349 346 471 l 346 140 q 308 28 346 71 q 201 -14 271 -14 z "},"T":{"ha":382,"x_min":56,"x_max":326,"o":"m 144 833 l 56 833 l 56 917 l 326 917 l 326 833 l 239 833 l 239 0 l 144 0 l 144 833 z "},"U":{"ha":404,"x_min":56,"x_max":349,"o":"m 201 -14 q 94 35 132 -14 q 56 154 56 83 l 56 917 l 151 917 l 151 154 q 201 75 151 75 q 253 154 253 75 l 253 917 l 349 917 l 349 154 q 310 35 349 83 q 201 -14 271 -14 z "},"V":{"ha":447,"x_min":56,"x_max":392,"o":"m 56 917 l 151 917 l 224 354 l 296 917 l 392 917 l 269 0 l 178 0 l 56 917 z "},"W":{"ha":628,"x_min":56,"x_max":572,"o":"m 56 917 l 147 917 l 221 358 l 283 629 l 344 629 l 408 358 l 481 917 l 572 917 l 450 0 l 360 0 l 314 372 l 269 0 l 178 0 l 56 917 z "},"X":{"ha":458,"x_min":56,"x_max":403,"o":"m 179 451 l 56 917 l 151 917 l 229 607 l 307 917 l 403 917 l 279 451 l 393 0 l 297 0 l 229 296 l 161 0 l 65 0 l 179 451 z "},"Y":{"ha":431,"x_min":56,"x_max":375,"o":"m 168 433 l 56 917 l 151 917 l 215 615 l 279 917 l 375 917 l 263 433 l 263 0 l 168 0 l 168 433 z "},"Z":{"ha":369,"x_min":56,"x_max":314,"o":"m 56 86 l 224 831 l 56 831 l 56 917 l 314 917 l 314 831 l 149 86 l 314 86 l 314 0 l 56 0 l 56 86 z "},"a":{"ha":401,"x_min":56,"x_max":346,"o":"m 200 -14 q 93 28 131 -14 q 56 140 56 71 l 56 326 q 93 440 56 397 q 200 482 131 482 l 250 482 l 250 561 q 240 610 250 593 q 200 628 231 628 q 160 610 169 628 q 150 561 150 593 l 150 518 l 56 518 l 56 563 q 93 676 56 633 q 200 718 131 718 q 308 676 269 718 q 346 563 346 633 l 346 140 q 308 28 346 71 q 200 -14 269 -14 m 150 143 q 200 74 150 74 q 240 92 231 74 q 250 143 250 111 l 250 392 l 200 392 q 160 374 169 392 q 150 325 150 357 l 150 143 z "},"b":{"ha":401,"x_min":56,"x_max":346,"o":"m 200 -14 q 93 28 131 -14 q 56 140 56 71 l 56 917 l 151 917 l 151 711 q 200 718 175 718 q 308 676 269 718 q 346 563 346 633 l 346 140 q 308 28 346 71 q 200 -14 269 -14 m 150 143 q 160 92 150 111 q 200 74 169 74 q 240 92 231 74 q 250 143 250 111 l 250 561 q 239 610 250 592 q 197 628 228 628 q 163 609 174 628 q 151 561 151 590 l 150 143 z "},"c":{"ha":401,"x_min":56,"x_max":346,"o":"m 200 -14 q 93 28 131 -14 q 56 140 56 71 l 56 563 q 93 676 56 633 q 200 718 131 718 q 308 676 269 718 q 346 563 346 633 l 346 450 l 250 450 l 250 561 q 240 610 250 593 q 200 628 231 628 q 160 610 169 628 q 150 561 150 593 l 150 143 q 160 92 150 111 q 200 74 169 74 q 240 92 231 74 q 250 143 250 111 l 250 238 l 346 238 l 346 140 q 308 28 346 71 q 200 -14 269 -14 z "},"d":{"ha":401,"x_min":56,"x_max":346,"o":"m 201 -14 q 94 28 132 -14 q 56 140 56 71 l 56 563 q 94 676 56 633 q 201 718 132 718 q 250 711 226 718 l 250 917 l 346 917 l 346 140 q 308 28 346 71 q 201 -14 271 -14 m 151 143 q 161 92 151 111 q 201 74 171 74 q 242 92 232 74 q 251 143 251 111 l 250 585 q 201 628 246 628 q 161 610 171 628 q 151 561 151 593 l 151 143 z "},"e":{"ha":401,"x_min":56,"x_max":346,"o":"m 200 -14 q 93 28 131 -14 q 56 140 56 71 l 56 563 q 93 676 56 633 q 200 718 131 718 q 308 676 269 718 q 346 563 346 633 l 346 450 q 308 341 346 382 q 200 300 269 300 l 150 300 l 150 143 q 160 92 150 111 q 200 74 169 74 q 240 92 231 74 q 250 143 250 111 l 250 238 l 346 238 l 346 140 q 308 28 346 71 q 200 -14 269 -14 m 200 390 q 240 408 231 390 q 250 457 250 425 l 250 561 q 240 610 250 593 q 200 628 231 628 q 160 610 169 628 q 150 561 150 593 l 150 390 l 200 390 z "},"f":{"ha":293,"x_min":56,"x_max":238,"o":"m 56 775 q 92 888 56 844 q 193 931 128 931 l 238 931 l 238 833 l 199 833 q 160 819 169 833 q 151 774 151 804 l 151 704 l 210 704 l 210 621 l 151 621 l 150 0 l 56 0 l 56 775 z "},"g":{"ha":401,"x_min":56,"x_max":381,"o":"m 165 -247 l 204 -247 q 242 -233 233 -247 q 251 -187 251 -218 l 251 -7 q 200 -14 226 -14 q 93 28 131 -14 q 56 140 56 71 l 56 563 q 93 676 56 633 q 200 718 131 718 q 297 686 258 718 q 379 704 329 704 l 381 608 q 342 604 358 608 q 346 563 346 583 l 344 -189 q 210 -344 344 -344 l 165 -344 l 165 -247 m 150 143 q 160 92 150 111 q 200 74 169 74 q 240 92 231 74 q 250 143 250 111 l 250 561 q 240 610 250 593 q 200 628 231 628 q 160 610 169 628 q 150 561 150 593 l 150 143 z "},"h":{"ha":401,"x_min":56,"x_max":346,"o":"m 56 1 l 56 918 l 150 918 l 150 711 q 200 718 175 718 q 308 676 269 718 q 346 563 346 633 l 346 0 l 250 0 l 250 561 q 240 610 250 593 q 200 628 231 628 q 160 610 169 628 q 150 561 150 593 l 150 0 l 56 1 z "},"i":{"ha":224,"x_min":56,"x_max":168,"o":"m 65 704 l 160 704 l 160 0 l 65 0 l 65 704 m 56 863 q 72 902 56 886 q 113 918 89 918 q 152 902 136 918 q 168 863 168 886 q 152 822 168 839 q 113 806 136 806 q 72 822 89 806 q 56 863 56 839 z "},"j":{"ha":410,"x_min":56,"x_max":354,"o":"m 200 -344 q 93 -302 131 -344 q 56 -190 56 -260 l 56 -121 l 150 -119 l 150 -193 q 160 -240 150 -222 q 200 -257 171 -257 q 240 -238 231 -257 q 250 -187 250 -219 l 250 704 l 346 704 l 346 -190 q 308 -302 346 -260 q 200 -344 269 -344 m 242 863 q 258 902 242 886 q 299 918 275 918 q 338 902 322 918 q 354 863 354 886 q 338 822 354 839 q 299 806 322 806 q 258 822 275 806 q 242 863 242 839 z "},"k":{"ha":479,"x_min":56,"x_max":424,"o":"m 56 917 l 151 917 l 151 440 l 288 704 l 383 704 l 189 335 l 424 0 l 328 0 l 151 238 l 151 0 l 56 0 l 56 917 z "},"l":{"ha":206,"x_min":56,"x_max":150,"o":"m 56 917 l 150 917 l 150 0 l 56 0 l 56 917 z "},"m":{"ha":596,"x_min":56,"x_max":540,"o":"m 56 563 q 93 676 56 633 q 200 718 131 718 q 297 686 261 718 q 394 718 333 718 q 502 676 464 718 q 540 563 540 633 l 540 0 l 444 0 l 444 561 q 435 610 444 593 q 394 628 425 628 q 357 613 368 628 q 346 563 346 597 l 346 0 l 250 0 l 250 561 q 240 610 250 593 q 200 628 231 628 q 160 610 169 628 q 150 561 150 593 l 150 0 l 56 0 l 56 563 z "},"n":{"ha":401,"x_min":56,"x_max":346,"o":"m 56 563 q 93 676 56 633 q 200 718 131 718 q 308 676 269 718 q 346 563 346 633 l 346 0 l 250 0 l 250 561 q 240 610 250 593 q 200 628 231 628 q 160 610 169 628 q 150 561 150 593 l 150 0 l 56 0 l 56 563 z "},"o":{"ha":401,"x_min":56,"x_max":346,"o":"m 200 -14 q 93 28 131 -14 q 56 140 56 71 l 56 563 q 93 676 56 633 q 200 718 131 718 q 308 676 269 718 q 346 563 346 633 l 346 140 q 308 28 346 71 q 200 -14 269 -14 m 150 143 q 160 92 150 111 q 200 74 169 74 q 240 92 231 74 q 250 143 250 111 l 250 561 q 240 610 250 593 q 200 628 231 628 q 160 610 169 628 q 150 561 150 593 l 150 143 z "},"p":{"ha":401,"x_min":56,"x_max":346,"o":"m 56 564 q 93 676 56 633 q 200 718 131 718 q 308 676 269 718 q 346 564 346 633 l 346 142 q 308 28 346 71 q 200 -14 269 -14 q 151 -7 175 -14 l 151 -212 l 56 -212 l 56 564 m 151 119 q 200 76 156 76 q 240 94 231 76 q 250 143 250 111 l 250 561 q 240 612 250 593 q 200 631 231 631 q 160 612 169 631 q 150 561 150 593 l 151 119 z "},"q":{"ha":401,"x_min":56,"x_max":346,"o":"m 250 -7 q 201 -14 226 -14 q 94 28 132 -14 q 56 142 56 71 l 56 564 q 94 676 56 633 q 201 718 132 718 q 308 676 271 718 q 346 564 346 633 l 346 -212 l 250 -212 l 250 -7 m 151 143 q 161 94 151 111 q 201 76 171 76 q 250 119 246 76 l 251 561 q 242 612 251 593 q 201 631 232 631 q 161 612 171 631 q 151 561 151 593 l 151 143 z "},"r":{"ha":401,"x_min":56,"x_max":346,"o":"m 56 563 q 94 676 56 633 q 201 718 132 718 q 308 676 271 718 q 346 563 346 633 l 346 450 l 251 450 l 251 561 q 242 610 251 593 q 201 628 232 628 q 161 610 171 628 q 151 561 151 593 l 150 0 l 56 0 l 56 563 z "},"s":{"ha":403,"x_min":56,"x_max":347,"o":"m 200 -14 q 93 28 131 -14 q 56 142 56 71 l 56 260 l 150 260 l 150 143 q 160 94 150 111 q 200 76 169 76 q 240 94 231 76 q 250 143 250 111 l 250 247 q 240 291 250 276 q 200 314 231 306 q 92 374 128 332 q 57 483 57 415 l 57 563 q 94 676 57 633 q 201 718 132 718 q 309 676 271 718 q 347 563 347 633 l 347 450 l 251 450 l 251 561 q 242 610 251 593 q 201 628 232 628 q 161 610 171 628 q 151 561 151 593 l 151 482 q 167 433 151 451 q 210 404 182 414 q 315 347 283 376 q 346 254 346 317 l 346 142 q 308 28 346 71 q 200 -14 269 -14 z "},"t":{"ha":307,"x_min":56,"x_max":251,"o":"m 56 917 l 150 917 l 151 704 l 251 704 l 251 621 l 151 621 l 151 0 l 56 0 l 56 917 z "},"u":{"ha":401,"x_min":56,"x_max":346,"o":"m 200 -14 q 93 28 131 -14 q 56 142 56 71 l 56 704 l 150 704 l 150 143 q 160 94 150 111 q 200 76 169 76 q 240 94 231 76 q 250 143 250 111 l 250 704 l 346 704 l 346 142 q 308 28 346 71 q 200 -14 269 -14 z "},"v":{"ha":401,"x_min":56,"x_max":346,"o":"m 56 704 l 151 704 l 203 268 l 250 704 l 346 704 l 256 0 l 151 0 l 56 704 z "},"w":{"ha":597,"x_min":56,"x_max":542,"o":"m 56 704 l 151 704 l 203 296 l 250 704 l 347 704 l 399 296 l 446 704 l 542 704 l 451 0 l 347 0 l 300 347 l 256 0 l 151 0 l 56 704 z "},"x":{"ha":401,"x_min":56,"x_max":346,"o":"m 131 353 l 56 704 l 151 704 l 201 458 l 250 704 l 346 704 l 276 353 l 346 0 l 250 0 l 201 246 l 151 0 l 56 0 l 131 353 z "},"y":{"ha":401,"x_min":56,"x_max":346,"o":"m 158 0 l 56 704 l 151 704 l 204 301 l 250 704 l 346 704 l 254 0 l 213 -344 l 117 -344 l 158 0 z "},"z":{"ha":369,"x_min":56,"x_max":314,"o":"m 56 86 l 224 618 l 56 618 l 56 704 l 314 704 l 314 618 l 149 86 l 314 86 l 314 0 l 56 0 l 56 86 z "},".":{"ha":243,"x_min":56,"x_max":188,"o":"m 121 0 q 74 19 93 0 q 56 65 56 39 q 74 117 56 96 q 121 138 92 138 q 170 117 153 138 q 188 65 188 97 q 167 19 188 39 q 121 0 147 0 z "},",":{"ha":272,"x_min":56,"x_max":217,"o":"m 121 172 l 217 172 l 151 0 l 56 0 l 121 172 z "},"'":{"ha":288,"x_min":56,"x_max":232,"o":"m 56 917 l 151 917 l 232 704 l 136 704 l 56 917 z "},"\"":{"ha":401,"x_min":56,"x_max":346,"o":"m 56 917 l 151 917 l 232 704 l 136 704 l 56 917 m 169 917 l 265 917 l 346 704 l 250 704 l 169 917 z "},"‘":{"ha":288,"x_min":83,"x_max":260,"o":"m 83 917 l 179 917 l 260 704 l 164 704 l 83 917 z "},"’":{"ha":288,"x_min":28,"x_max":204,"o":"m 28 704 l 108 917 l 204 917 l 124 704 l 28 704 z "},"“":{"ha":401,"x_min":83,"x_max":374,"o":"m 83 917 l 179 917 l 260 704 l 164 704 l 83 917 m 197 917 l 293 917 l 374 704 l 278 704 l 197 917 z "},"”":{"ha":401,"x_min":28,"x_max":318,"o":"m 142 704 l 222 917 l 318 917 l 238 704 l 142 704 m 108 917 l 204 917 l 124 704 l 28 704 l 108 917 z "},"-":{"ha":483,"x_min":56,"x_max":428,"o":"m 56 472 l 428 472 l 428 376 l 56 376 l 56 472 z "},"+":{"ha":483,"x_min":56,"x_max":428,"o":"m 194 376 l 56 376 l 56 472 l 194 472 l 194 611 l 290 611 l 290 472 l 428 472 l 428 376 l 290 376 l 290 239 l 194 239 l 194 376 z "},"*":{"ha":483,"x_min":56,"x_max":428,"o":"m 133 682 l 56 682 l 56 778 l 100 778 l 67 811 l 135 879 l 194 818 l 194 917 l 290 917 l 290 839 l 331 879 l 399 811 l 365 778 l 428 778 l 428 682 l 332 682 l 397 617 l 329 549 l 290 588 l 290 544 l 194 544 l 194 608 l 135 549 l 68 617 l 133 682 z "},"^":{"ha":481,"x_min":56,"x_max":425,"o":"m 244 917 l 425 692 l 329 692 l 240 808 l 151 692 l 56 690 l 244 917 z "},"/":{"ha":593,"x_min":56,"x_max":538,"o":"m 442 917 l 538 917 l 151 0 l 56 0 l 442 917 z "},"\\":{"ha":593,"x_min":56,"x_max":538,"o":"m 56 917 l 151 917 l 538 0 l 442 0 l 56 917 z "},":":{"ha":222,"x_min":56,"x_max":189,"o":"m 122 100 q 76 119 94 100 q 57 165 57 139 q 75 217 57 196 q 122 238 93 238 q 172 217 154 238 q 189 165 189 197 q 169 119 189 139 q 122 100 149 100 m 121 588 q 74 607 93 588 q 56 653 56 626 q 74 704 56 683 q 121 725 92 725 q 170 705 153 725 q 188 653 188 685 q 167 607 188 626 q 121 588 147 588 z "},";":{"ha":272,"x_min":56,"x_max":229,"o":"m 163 588 q 116 607 135 588 q 97 653 97 626 q 115 704 97 683 q 163 725 133 725 q 212 705 194 725 q 229 653 229 685 q 209 607 229 626 q 163 588 189 588 m 121 218 l 217 218 l 151 46 l 56 46 l 121 218 z "},"<":{"ha":500,"x_min":56,"x_max":444,"o":"m 56 438 l 349 690 l 444 690 l 154 440 l 428 185 l 332 185 l 56 438 z "},"=":{"ha":482,"x_min":56,"x_max":426,"o":"m 56 524 l 426 524 l 426 428 l 56 428 l 56 524 m 56 399 l 426 399 l 426 303 l 56 303 l 56 399 z "},">":{"ha":500,"x_min":56,"x_max":444,"o":"m 346 440 l 56 690 l 151 690 l 444 438 l 168 185 l 72 185 l 346 440 z "},"!":{"ha":218,"x_min":56,"x_max":163,"o":"m 90 917 l 136 917 l 121 144 l 96 144 l 90 917 m 56 53 q 71 90 56 72 q 108 107 86 107 q 148 91 133 107 q 163 53 163 75 q 146 17 163 33 q 108 0 129 0 q 71 16 86 0 q 56 53 56 32 z "},"?":{"ha":407,"x_min":56,"x_max":351,"o":"m 63 349 q 208 525 63 471 q 257 599 257 543 l 257 774 q 247 823 257 806 q 207 840 238 840 q 167 823 176 840 q 157 774 157 806 l 157 629 l 61 629 l 61 774 q 99 888 61 844 q 207 931 138 931 q 314 888 276 931 q 351 774 351 844 l 351 599 q 317 497 351 535 q 208 428 282 458 q 157 349 157 406 l 157 140 l 63 140 l 63 349 m 56 54 q 72 91 56 74 q 110 108 88 108 q 149 92 135 108 q 164 54 164 76 q 147 17 164 33 q 110 0 131 0 q 72 17 88 0 q 56 54 56 33 z "},"#":{"ha":1036,"x_min":56,"x_max":981,"o":"m 250 314 l 56 314 l 94 410 l 290 410 l 350 550 l 125 550 l 164 646 l 390 646 l 504 917 l 600 917 l 486 646 l 668 646 l 782 917 l 878 917 l 764 646 l 981 646 l 942 550 l 724 550 l 664 410 l 911 410 l 872 314 l 624 314 l 492 0 l 396 0 l 528 314 l 346 314 l 214 0 l 118 0 l 250 314 m 568 410 l 628 550 l 446 550 l 386 410 l 568 410 z "},"@":{"ha":610,"x_min":56,"x_max":554,"o":"m 301 -149 q 126 -93 197 -150 q 56 89 56 -36 l 56 575 q 92 692 56 644 q 183 763 128 740 q 297 786 239 786 q 416 763 357 786 q 515 692 475 739 q 554 575 554 644 l 554 101 q 524 36 554 58 q 454 14 494 14 q 410 22 429 14 q 382 44 390 31 q 303 19 353 19 q 213 54 244 19 q 182 147 182 89 l 182 303 q 213 397 182 361 q 303 432 244 432 l 344 432 l 344 499 q 336 540 344 525 q 303 554 328 554 q 269 540 278 554 q 261 499 261 525 l 261 463 l 182 463 l 182 500 q 213 594 182 558 q 303 629 244 629 q 393 594 361 629 q 425 500 425 558 l 425 117 q 431 93 425 101 q 447 85 438 85 q 462 93 456 85 q 468 115 468 101 l 468 581 q 440 651 468 624 q 372 692 411 679 q 297 706 332 706 q 191 674 242 706 q 140 581 140 643 l 140 88 q 301 -68 140 -65 l 301 -149 m 261 150 q 303 92 261 92 q 336 107 328 92 q 344 150 344 122 l 344 357 l 303 357 q 269 342 278 357 q 261 301 261 328 l 261 150 z "},"$":{"ha":403,"x_min":56,"x_max":347,"o":"m 161 -10 q 83 42 110 1 q 56 140 56 82 l 56 282 l 151 282 l 151 143 q 161 92 151 111 q 201 74 171 74 q 242 92 232 74 q 251 143 251 111 l 251 349 q 200 428 251 406 q 92 497 126 458 q 57 599 57 535 l 57 774 q 83 874 57 833 q 161 926 110 914 l 161 1019 l 243 1019 l 243 926 q 320 874 293 914 q 347 774 347 833 l 347 629 l 251 629 l 251 774 q 242 823 251 806 q 201 840 232 840 q 161 823 171 840 q 151 774 151 806 l 151 599 q 200 525 151 543 q 346 349 346 471 l 346 140 q 319 42 346 82 q 243 -10 293 3 l 243 -85 l 161 -85 l 161 -10 z "},"€":{"ha":510,"x_min":56,"x_max":454,"o":"m 308 -14 q 201 28 239 -14 q 164 140 164 71 l 164 335 l 56 335 l 56 431 l 164 431 l 164 460 l 56 460 l 56 556 l 164 556 l 164 775 q 201 888 164 846 q 308 931 239 931 q 416 888 378 931 q 454 775 454 846 l 454 629 l 358 629 l 358 774 q 349 823 358 806 q 308 840 339 840 q 268 823 278 840 q 258 774 258 806 l 258 556 l 426 556 l 426 460 l 258 460 l 258 431 l 426 431 l 426 335 l 258 335 l 258 140 q 268 91 258 108 q 308 74 278 74 q 349 91 339 74 q 358 140 358 108 l 358 282 l 454 282 l 454 140 q 416 28 454 71 q 308 -14 378 -14 z "},"%":{"ha":908,"x_min":56,"x_max":853,"o":"m 171 172 q 85 206 115 172 q 56 294 56 239 l 56 793 q 85 884 56 850 q 171 918 115 918 q 257 884 226 918 q 288 793 288 850 l 288 294 q 257 206 288 239 q 171 172 226 172 m 131 297 q 138 256 131 271 q 171 242 146 242 q 203 256 196 242 q 211 297 211 271 l 211 408 l 131 408 l 131 297 m 211 503 l 211 793 q 203 832 211 818 q 171 846 196 846 q 138 832 146 846 q 131 793 131 818 l 131 503 l 211 503 m 622 915 l 718 915 l 644 739 q 732 774 675 774 q 822 738 790 774 q 853 644 853 703 l 853 128 q 822 36 853 71 q 732 1 790 1 q 643 36 674 1 q 613 128 613 71 l 613 644 q 614 668 613 660 l 332 -1 l 236 -1 l 622 915 m 690 131 q 699 89 690 104 q 732 74 707 74 q 765 89 757 74 q 774 131 774 104 l 774 246 l 690 246 l 690 131 m 774 344 l 774 643 q 765 684 774 669 q 732 699 757 699 q 699 684 707 699 q 690 643 690 669 l 690 344 l 774 344 z "},"&":{"ha":956,"x_min":56,"x_max":900,"o":"m 350 0 q 203 28 271 0 q 96 115 136 57 q 56 254 56 172 q 88 380 56 319 q 183 479 119 440 q 336 518 247 518 q 393 514 364 518 q 323 624 344 576 q 301 722 301 671 q 334 834 301 790 q 414 897 367 878 q 507 917 461 917 q 607 893 557 917 q 691 819 657 869 q 725 696 725 769 l 725 615 l 629 615 l 629 696 q 592 799 629 776 q 503 822 556 822 q 423 799 457 822 q 389 726 389 776 q 407 640 389 675 q 468 550 425 604 l 900 0 l 804 0 l 607 240 q 533 61 607 122 q 350 0 458 0 m 151 254 q 202 132 151 168 q 333 96 253 96 q 460 135 408 96 q 511 257 511 174 q 486 344 511 304 q 419 408 461 385 q 329 431 378 431 q 204 384 257 431 q 151 254 151 338 z "},"(":{"ha":410,"x_min":56,"x_max":354,"o":"m 324 -18 q 194 67 257 -7 q 94 254 132 142 q 56 486 56 367 q 124 813 56 688 q 303 993 193 939 l 350 903 q 201 733 251 835 q 151 489 151 632 q 204 221 151 333 q 354 78 257 108 l 324 -18 z "},")":{"ha":410,"x_min":56,"x_max":354,"o":"m 56 78 q 206 221 153 108 q 258 489 258 333 q 208 733 258 632 q 60 903 158 835 l 107 993 q 285 813 217 939 q 354 486 354 688 q 316 254 354 367 q 215 67 278 142 q 86 -18 153 -7 l 56 78 z "},"{":{"ha":383,"x_min":56,"x_max":328,"o":"m 328 -57 q 186 1 238 -57 q 135 143 135 58 q 144 214 135 171 q 158 325 158 278 q 138 397 158 372 q 83 439 117 421 q 63 453 69 447 q 56 465 56 458 q 83 490 56 476 q 138 535 118 511 q 158 607 158 558 q 144 728 158 658 q 135 788 136 774 q 133 821 133 799 q 176 963 133 917 q 282 1010 219 1010 l 282 914 q 228 836 228 918 q 231 792 228 822 l 243 703 q 254 608 254 633 q 233 523 254 557 q 161 465 211 489 q 233 406 211 439 q 254 324 254 372 q 244 250 254 299 q 231 139 231 186 q 328 39 231 38 l 328 -57 z "},"|":{"ha":207,"x_min":56,"x_max":151,"o":"m 56 949 l 151 949 l 151 -36 l 56 -36 l 56 949 z "},"}":{"ha":383,"x_min":56,"x_max":328,"o":"m 56 39 q 153 139 153 38 q 139 250 153 186 q 129 324 129 299 q 151 406 129 372 q 222 465 172 439 q 151 523 172 489 q 129 608 129 557 q 140 703 129 633 l 153 792 q 156 836 156 822 q 101 914 156 918 l 101 1010 q 213 955 169 1010 q 249 788 257 900 q 239 728 247 774 q 225 607 225 658 q 245 535 225 558 q 300 490 265 511 q 328 465 328 476 q 321 453 328 458 q 300 439 314 447 q 246 397 267 421 q 225 325 225 372 q 239 214 225 278 q 249 143 249 171 q 197 1 249 58 q 56 -57 146 -57 l 56 39 z "},"[":{"ha":307,"x_min":56,"x_max":251,"o":"m 56 968 l 251 968 l 251 872 l 157 872 l 157 -110 l 251 -110 l 251 -206 l 56 -206 l 56 968 z "},"]":{"ha":307,"x_min":56,"x_max":251,"o":"m 56 -206 l 56 -110 l 150 -110 l 150 872 l 56 872 l 56 968 l 251 968 l 251 -206 l 56 -206 z "},"‚":{"ha":272,"x_min":56,"x_max":217,"o":"m 121 172 l 217 172 l 151 0 l 56 0 l 121 172 z "},"„":{"ha":385,"x_min":56,"x_max":329,"o":"m 121 172 l 217 172 l 151 0 l 56 0 l 121 172 m 233 172 l 329 172 l 264 0 l 168 0 l 233 172 z "},"•":{"ha":253,"x_min":56,"x_max":226,"o":"m 140 292 q 79 317 103 292 q 56 376 56 342 q 79 442 56 415 q 140 469 103 469 q 203 444 181 469 q 226 376 226 418 q 200 317 226 343 q 140 292 174 292 z "},"_":{"ha":625,"x_min":56,"x_max":569,"o":"m 56 165 l 569 165 l 569 69 l 56 69 l 56 165 z "},"–":{"ha":618,"x_min":56,"x_max":563,"o":"m 56 429 l 563 429 l 563 333 l 56 333 l 56 429 z "},"—":{"ha":731,"x_min":56,"x_max":675,"o":"m 56 428 l 675 428 l 675 332 l 56 332 l 56 428 z "},"¯":{"ha":506,"x_min":56,"x_max":450,"o":"m 56 940 l 450 940 l 450 844 l 56 844 l 56 940 z "},"¬":{"ha":729,"x_min":56,"x_max":674,"o":"m 578 332 l 56 332 l 56 428 l 674 428 l 674 181 l 578 181 l 578 332 z "},"™":{"ha":581,"x_min":56,"x_max":525,"o":"m 113 863 l 56 863 l 56 917 l 276 917 l 371 814 l 464 917 l 525 917 l 525 329 l 465 329 l 465 833 l 390 749 l 351 749 l 276 831 l 276 329 l 215 329 l 215 863 l 172 863 l 172 329 l 113 329 l 113 863 z "},"®":{"ha":458,"x_min":56,"x_max":403,"o":"m 226 244 q 104 287 153 246 q 56 415 56 328 l 56 765 q 108 878 56 839 q 229 917 161 917 q 350 878 297 917 q 403 765 403 839 l 403 415 q 353 286 403 326 q 226 244 304 246 m 117 414 q 229 303 117 306 q 342 414 342 306 l 342 769 q 306 836 342 814 q 229 858 269 858 q 153 836 189 858 q 117 769 117 814 l 117 414 m 167 790 l 219 790 q 273 774 254 790 q 292 731 292 757 l 292 631 q 276 588 292 603 q 292 540 292 578 l 292 371 l 249 371 l 249 540 q 242 563 249 557 q 219 569 235 569 l 210 569 l 210 371 l 167 371 l 167 790 m 219 608 q 243 612 238 608 q 249 631 249 615 l 249 731 q 241 748 249 744 q 210 751 233 751 l 210 608 l 219 608 z "},"©":{"ha":458,"x_min":56,"x_max":403,"o":"m 226 244 q 104 287 153 246 q 56 415 56 328 l 56 765 q 108 878 56 839 q 229 917 161 917 q 350 878 297 917 q 403 765 403 839 l 403 415 q 353 286 403 326 q 226 244 304 246 m 117 414 q 229 303 117 306 q 342 414 342 306 l 342 769 q 306 836 342 814 q 229 858 269 858 q 153 836 189 858 q 117 769 117 814 l 117 414 m 160 732 q 177 784 160 765 q 228 803 194 803 q 279 784 261 803 q 297 732 297 765 l 297 663 l 253 663 l 253 731 q 248 752 253 744 q 228 760 243 760 q 208 752 213 760 q 204 731 204 744 l 204 432 q 208 409 204 417 q 228 401 213 401 q 248 409 243 401 q 253 432 253 417 l 253 500 l 297 500 l 297 432 q 278 380 297 400 q 228 360 260 360 q 178 380 196 360 q 160 432 160 400 l 160 732 z "},"¤":{"ha":533,"x_min":56,"x_max":478,"o":"m 143 210 q 119 304 119 249 l 119 610 q 149 714 119 675 l 67 846 l 163 846 l 217 760 q 264 765 244 765 q 325 754 296 765 l 382 846 l 478 846 l 388 701 q 410 610 410 665 l 410 304 q 389 215 410 253 l 476 75 l 381 75 l 326 161 q 264 150 297 150 q 207 158 232 150 l 151 69 l 56 69 l 143 210 m 214 307 q 224 256 214 275 q 264 238 233 238 q 304 256 294 238 q 314 307 314 275 l 314 608 q 304 658 314 640 q 264 675 294 675 q 224 658 233 675 q 214 608 214 640 l 214 307 z "},"¢":{"ha":401,"x_min":56,"x_max":346,"o":"m 147 -6 q 79 47 103 8 q 56 140 56 85 l 56 775 q 79 869 56 831 q 147 922 103 908 l 147 1011 l 256 1011 l 256 922 q 323 869 300 907 q 346 775 346 831 l 346 629 l 250 629 l 250 774 q 240 823 250 806 q 200 840 231 840 q 160 823 169 840 q 150 774 150 806 l 150 140 q 160 91 150 108 q 200 74 169 74 q 240 91 231 74 q 250 140 250 108 l 250 282 l 346 282 l 346 140 q 323 48 346 86 q 256 -6 300 10 l 256 -101 l 147 -101 l 147 -6 z "},"£":{"ha":772,"x_min":56,"x_max":717,"o":"m 156 0 q 239 281 239 126 q 233 356 239 307 q 213 461 226 404 l 56 461 l 56 557 l 189 557 q 157 626 168 596 q 146 690 146 657 q 186 814 146 763 q 291 891 226 865 q 425 917 356 917 q 566 878 499 917 q 675 776 633 839 q 717 649 717 714 l 619 649 q 594 731 618 692 q 525 796 569 771 q 422 821 481 821 q 300 788 353 821 q 247 697 247 754 q 251 665 247 682 q 294 557 268 604 l 496 557 l 496 461 l 322 461 q 347 274 347 365 q 317 96 347 169 l 667 96 l 667 0 l 156 0 z "},"¥":{"ha":431,"x_min":40,"x_max":411,"o":"m 168 201 l 40 201 l 40 297 l 168 297 l 168 326 l 40 326 l 40 422 l 168 422 l 168 433 l 56 917 l 151 917 l 215 615 l 279 917 l 375 917 l 263 433 l 263 422 l 411 422 l 411 326 l 263 326 l 263 297 l 411 297 l 411 201 l 263 201 l 263 0 l 168 0 l 168 201 z "},"ƒ":{"ha":625,"x_min":56,"x_max":569,"o":"m 56 0 q 108 185 90 118 q 157 382 126 251 l 88 382 l 88 476 l 172 478 l 188 568 l 194 610 q 220 740 207 692 q 261 828 233 789 q 335 894 292 872 q 453 917 379 917 l 569 917 l 569 821 l 497 821 q 403 812 435 821 q 349 775 372 803 q 305 690 318 740 q 278 556 292 640 l 265 476 l 400 476 l 400 381 l 251 381 l 215 238 q 151 0 189 128 l 56 0 z "},"−":{"ha":483,"x_min":56,"x_max":428,"o":"m 56 472 l 428 472 l 428 376 l 56 376 l 56 472 z "},"±":{"ha":494,"x_min":83,"x_max":467,"o":"m 222 564 l 83 564 l 83 660 l 222 660 l 222 799 l 318 799 l 318 660 l 456 660 l 456 564 l 318 564 l 318 426 l 222 426 l 222 564 m 94 228 l 467 228 l 467 132 l 94 132 l 94 228 z "},"×":{"ha":443,"x_min":56,"x_max":388,"o":"m 154 467 l 56 564 l 124 632 l 221 533 l 319 632 l 388 564 l 289 467 l 386 369 l 318 301 l 221 399 l 124 301 l 57 369 l 154 467 z "},"÷":{"ha":483,"x_min":56,"x_max":428,"o":"m 56 472 l 428 472 l 428 376 l 56 376 l 56 472 m 250 219 q 203 239 222 219 q 185 285 185 258 q 203 336 185 315 q 250 357 221 357 q 299 337 282 357 q 317 285 317 317 q 297 239 317 258 q 250 219 276 219 m 253 493 q 206 513 225 493 q 188 558 188 532 q 206 610 188 589 q 253 631 224 631 q 302 610 285 631 q 319 558 319 590 q 299 513 319 532 q 253 493 279 493 z "},"¦":{"ha":207,"x_min":56,"x_max":151,"o":"m 56 393 l 151 393 l 151 -32 l 56 -32 l 56 393 m 56 931 l 151 931 l 151 575 l 56 575 l 56 931 z "},"…":{"ha":619,"x_min":56,"x_max":586,"o":"m 121 0 q 74 19 93 0 q 56 65 56 39 q 74 117 56 96 q 121 138 92 138 q 170 117 153 138 q 188 65 188 97 q 167 19 188 39 q 121 0 147 0 m 326 0 q 280 19 299 0 q 261 65 261 39 q 279 117 261 96 q 326 138 297 138 q 376 117 358 138 q 393 65 393 97 q 373 19 393 39 q 326 0 353 0 m 519 0 q 473 19 492 0 q 454 65 454 39 q 472 117 454 96 q 519 138 490 138 q 569 117 551 138 q 586 65 586 97 q 566 19 586 39 q 519 0 546 0 z "},"·":{"ha":221,"x_min":56,"x_max":188,"o":"m 121 331 q 74 350 93 331 q 56 396 56 369 q 74 447 56 426 q 121 468 92 468 q 170 448 153 468 q 188 396 188 428 q 167 350 188 369 q 121 331 147 331 z "},"¡":{"ha":218,"x_min":56,"x_max":163,"o":"m 121 596 l 136 -176 l 90 -176 l 96 596 l 121 596 m 56 688 q 71 724 56 708 q 108 740 86 740 q 146 724 129 740 q 163 688 163 707 q 148 649 163 665 q 108 633 133 633 q 71 651 86 633 q 56 688 56 668 z "},"¿":{"ha":407,"x_min":56,"x_max":351,"o":"m 344 394 q 199 218 344 272 q 150 144 150 200 l 150 -31 q 160 -80 150 -62 q 200 -97 169 -97 q 240 -80 231 -97 q 250 -31 250 -62 l 250 114 l 346 114 l 346 -31 q 308 -144 346 -101 q 200 -187 269 -187 q 93 -144 131 -187 q 56 -31 56 -101 l 56 144 q 90 247 56 208 q 199 315 125 285 q 250 394 250 338 l 250 603 l 344 603 l 344 394 m 243 689 q 260 726 243 710 q 297 743 276 743 q 335 726 319 743 q 351 689 351 710 q 335 652 351 669 q 297 635 319 635 q 258 651 272 635 q 243 689 243 667 z "},"°":{"ha":331,"x_min":56,"x_max":275,"o":"m 165 676 q 85 714 114 676 q 56 796 56 751 q 85 880 56 843 q 167 917 114 917 q 247 880 218 917 q 275 796 275 843 q 246 714 275 751 q 165 676 217 676 m 122 796 q 134 767 122 782 q 165 751 146 751 q 197 767 185 751 q 208 796 208 782 q 197 828 208 814 q 165 842 185 842 q 133 828 144 842 q 122 796 122 814 z "},"⁄":{"ha":593,"x_min":56,"x_max":538,"o":"m 442 917 l 538 917 l 151 0 l 56 0 l 442 917 z "},"‰":{"ha":1222,"x_min":56,"x_max":1167,"o":"m 175 144 q 86 179 117 144 q 56 271 56 214 l 56 788 q 86 881 56 846 q 175 917 117 917 q 265 881 233 917 q 296 788 296 846 l 296 271 q 265 179 296 214 q 175 144 233 144 m 133 274 q 142 232 133 247 q 175 217 150 217 q 208 232 200 217 q 217 274 217 247 l 217 389 l 133 389 l 133 274 m 217 488 l 217 786 q 208 827 217 813 q 175 842 200 842 q 142 827 150 842 q 133 786 133 813 l 133 488 l 217 488 m 636 915 l 732 915 l 346 -1 l 250 -1 l 636 915 m 649 651 q 679 745 649 710 q 768 781 710 781 q 858 745 826 781 q 889 651 889 710 l 889 135 q 858 43 889 78 q 768 8 826 8 q 679 43 710 8 q 649 135 649 78 l 649 651 m 726 138 q 735 96 726 111 q 768 81 743 81 q 801 96 793 81 q 810 138 810 111 l 810 253 l 726 253 l 726 138 m 810 351 l 810 650 q 801 691 810 676 q 768 706 793 706 q 735 691 743 706 q 726 650 726 676 l 726 351 l 810 351 m 926 651 q 957 745 926 710 q 1046 781 988 781 q 1135 745 1104 781 q 1167 651 1167 710 l 1167 135 q 1135 43 1167 78 q 1046 8 1104 8 q 957 43 988 8 q 926 135 926 78 l 926 651 m 1004 138 q 1013 96 1004 111 q 1046 81 1021 81 q 1079 96 1071 81 q 1088 138 1088 111 l 1088 253 l 1004 253 l 1004 138 m 1088 351 l 1088 650 q 1079 691 1088 676 q 1046 706 1071 706 q 1013 691 1021 706 q 1004 650 1004 676 l 1004 351 l 1088 351 z "},"¶":{"ha":546,"x_min":56,"x_max":490,"o":"m 250 192 q 201 185 226 185 q 94 227 132 185 q 56 340 56 269 l 56 763 q 94 874 56 832 q 201 917 132 917 q 308 874 271 917 q 346 763 346 832 l 346 0 l 250 0 l 250 192 m 151 342 q 161 292 151 310 q 201 275 171 275 q 250 318 246 275 l 251 760 q 242 810 251 792 q 201 829 232 829 q 161 810 171 829 q 151 760 151 792 l 151 342 m 394 917 l 490 917 l 490 0 l 394 0 l 394 917 z "},"§":{"ha":403,"x_min":56,"x_max":347,"o":"m 200 -107 q 93 -65 131 -107 q 56 49 56 -22 l 56 167 l 150 167 l 150 50 q 160 1 150 18 q 200 -17 169 -17 q 240 1 231 -17 q 250 50 250 18 l 250 154 q 240 198 250 183 q 200 221 231 213 q 92 281 128 239 q 57 390 57 322 l 57 469 q 94 583 57 542 q 57 696 57 625 l 57 775 q 94 888 57 846 q 201 931 132 931 q 309 888 271 931 q 347 775 347 846 l 347 663 l 251 663 l 251 774 q 242 823 251 806 q 201 840 232 840 q 161 823 171 840 q 151 774 151 806 l 151 694 q 167 645 151 664 q 210 617 182 626 q 315 559 283 589 q 346 467 346 529 l 346 354 q 317 251 346 292 q 346 161 346 218 l 346 49 q 308 -65 346 -22 q 200 -107 269 -107 m 151 389 q 167 340 151 358 q 210 311 182 321 l 236 301 q 250 356 250 317 l 250 460 q 240 503 250 489 q 200 526 231 518 l 181 532 q 151 468 151 522 l 151 389 z "},"†":{"ha":390,"x_min":56,"x_max":335,"o":"m 146 821 l 56 821 l 56 917 l 146 917 l 146 1003 l 242 1003 l 242 917 l 335 917 l 335 821 l 242 821 l 242 415 l 146 415 l 146 821 z "},"‡":{"ha":390,"x_min":56,"x_max":335,"o":"m 146 668 l 56 668 l 56 764 l 146 764 l 146 821 l 56 821 l 56 917 l 146 917 l 146 1003 l 242 1003 l 242 917 l 335 917 l 335 821 l 242 821 l 242 764 l 335 764 l 335 668 l 242 668 l 242 415 l 146 415 l 146 668 z "},"~":{"ha":664,"x_min":56,"x_max":608,"o":"m 56 356 q 119 499 72 440 q 224 557 167 557 q 292 541 264 557 q 358 493 321 525 q 409 456 388 468 q 456 443 431 443 q 500 459 486 443 q 529 521 514 475 l 608 503 q 468 347 558 347 q 403 362 431 347 q 342 406 376 376 q 281 449 307 435 q 221 463 256 463 q 183 445 199 463 q 156 398 168 428 q 133 339 143 368 l 56 356 z "},"‹":{"ha":500,"x_min":56,"x_max":444,"o":"m 56 438 l 349 690 l 444 690 l 154 440 l 428 185 l 332 185 l 56 438 z "},"›":{"ha":500,"x_min":56,"x_max":444,"o":"m 72 185 l 346 440 l 56 690 l 151 690 l 444 438 l 168 185 l 72 185 z "},"«":{"ha":942,"x_min":56,"x_max":886,"o":"m 56 438 l 349 690 l 444 690 l 154 440 l 428 185 l 332 185 l 56 438 m 497 431 l 790 683 l 886 683 l 596 433 l 869 178 l 774 178 l 497 431 z "},"»":{"ha":942,"x_min":56,"x_max":886,"o":"m 514 172 l 788 428 l 497 678 l 593 678 l 886 425 l 610 172 l 514 172 m 151 671 l 444 418 l 168 165 l 72 165 l 346 421 l 56 671 l 151 671 z "},"`":{"ha":278,"x_min":56,"x_max":222,"o":"m 56 840 l 151 840 l 222 668 l 126 668 l 56 840 z "},"¨":{"ha":360,"x_min":56,"x_max":304,"o":"m 114 704 q 72 722 89 704 q 56 763 56 739 q 72 808 56 789 q 114 828 89 828 q 158 810 142 828 q 174 763 174 792 q 156 722 174 740 q 114 704 138 704 m 185 764 q 201 810 185 790 q 243 829 218 829 q 288 811 272 829 q 304 764 304 793 q 285 722 304 740 q 243 704 267 704 q 201 722 218 704 q 185 764 185 739 z "},"´":{"ha":278,"x_min":56,"x_max":222,"o":"m 56 668 l 126 840 l 222 840 l 151 668 l 56 668 z "},"¸":{"ha":386,"x_min":56,"x_max":331,"o":"m 56 -104 q 143 -107 128 -107 q 199 -100 182 -107 q 226 -72 217 -93 q 231 -53 231 -62 q 197 -5 231 -25 q 108 28 163 15 l 171 144 l 267 144 l 224 60 q 305 12 279 42 q 331 -54 331 -18 q 272 -156 331 -124 q 122 -187 213 -187 q 56 -183 89 -187 l 56 -104 z "},"ˆ":{"ha":379,"x_min":56,"x_max":324,"o":"m 192 931 l 324 704 l 228 706 l 192 776 l 151 704 l 56 704 l 192 931 z "},"ˇ":{"ha":481,"x_min":56,"x_max":324,"o":"m 151 924 l 192 851 l 228 922 l 324 924 l 192 697 l 56 924 l 151 924 z "},"˘":{"ha":467,"x_min":56,"x_max":411,"o":"m 233 769 q 121 813 168 769 q 56 936 74 857 l 151 936 q 189 878 169 896 q 233 860 208 860 q 315 936 286 860 l 411 936 q 233 769 360 769 z "},"˙":{"ha":251,"x_min":56,"x_max":196,"o":"m 125 776 q 76 797 96 776 q 56 846 56 818 q 76 894 56 872 q 125 917 97 917 q 176 896 157 917 q 196 846 196 875 q 174 797 196 818 q 125 776 153 776 z "},"˚":{"ha":331,"x_min":56,"x_max":275,"o":"m 165 675 q 85 713 114 675 q 56 794 56 750 q 85 878 56 842 q 167 915 114 915 q 247 878 218 915 q 275 794 275 842 q 246 713 275 750 q 165 675 217 675 m 122 794 q 134 765 122 781 q 165 750 146 750 q 197 765 185 750 q 208 794 208 781 q 197 826 208 813 q 165 840 185 840 q 133 826 144 840 q 122 794 122 813 z "},"˛":{"ha":358,"x_min":56,"x_max":303,"o":"m 303 -111 q 186 -142 240 -142 q 106 -121 139 -142 q 61 -68 72 -100 q 56 -31 56 -53 q 94 62 56 18 q 214 125 133 106 l 228 119 l 247 54 q 172 19 200 40 q 144 -26 144 -3 q 182 -56 144 -56 q 288 -28 217 -56 l 303 -111 z "},"˝":{"ha":401,"x_min":56,"x_max":346,"o":"m 250 917 l 346 917 l 265 736 l 167 736 l 250 917 m 139 917 l 235 917 l 154 736 l 56 736 l 139 917 z "},"ª":{"ha":318,"x_min":56,"x_max":263,"o":"m 158 396 q 82 426 108 396 q 56 506 56 456 l 56 639 q 82 719 56 689 q 158 750 108 750 l 194 750 l 194 807 q 188 842 194 829 q 158 854 181 854 q 129 842 136 854 q 122 807 122 829 l 122 775 l 56 775 l 56 807 q 82 888 56 857 q 158 918 108 918 q 235 888 208 918 q 263 807 263 857 l 263 506 q 235 426 263 456 q 158 396 208 396 m 122 508 q 158 458 122 458 q 188 472 181 458 q 194 508 194 485 l 194 685 l 158 685 q 129 672 136 685 q 122 638 122 660 l 122 508 z "},"¹":{"ha":235,"x_min":56,"x_max":179,"o":"m 121 842 l 78 822 l 56 874 l 121 904 l 121 921 l 179 921 l 179 347 l 121 347 l 121 842 z "},"º":{"ha":272,"x_min":56,"x_max":217,"o":"m 136 513 q 76 536 97 513 q 56 599 56 560 l 56 832 q 76 894 56 871 q 136 918 97 918 q 196 894 175 918 q 217 832 217 871 l 217 599 q 196 536 217 560 q 136 513 175 513 m 108 600 q 114 572 108 582 q 136 561 119 561 q 164 600 164 561 l 164 832 q 158 858 164 849 q 136 868 153 868 q 114 859 119 868 q 108 832 108 850 l 108 600 z "},"¼":{"ha":742,"x_min":56,"x_max":686,"o":"m 125 833 l 78 814 l 56 868 l 125 900 l 125 918 l 188 918 l 188 307 l 125 307 l 125 833 m 465 917 l 549 917 l 211 -3 l 128 -3 l 465 917 m 446 575 l 508 575 l 508 256 l 563 256 l 563 333 l 625 333 l 625 256 l 686 256 l 686 193 l 625 193 l 625 0 l 563 0 l 563 193 l 446 193 l 446 575 z "},"½":{"ha":625,"x_min":56,"x_max":569,"o":"m 125 836 l 78 817 l 56 871 l 125 903 l 125 921 l 188 921 l 188 310 l 125 310 l 125 836 m 436 917 l 514 917 l 406 599 q 474 624 431 624 q 545 595 521 624 q 569 519 569 567 l 569 364 q 501 258 569 293 q 459 226 475 244 q 443 178 443 208 l 443 65 l 563 65 l 563 3 l 379 3 l 379 171 q 405 253 379 221 q 474 308 431 286 q 498 331 489 315 q 507 364 507 346 l 507 518 q 500 551 507 539 q 474 563 493 563 q 447 551 453 563 q 440 518 440 540 l 440 422 l 376 422 l 376 515 l 200 0 l 122 0 l 436 917 z "},"¾":{"ha":788,"x_min":56,"x_max":732,"o":"m 157 288 q 85 316 110 288 q 60 392 60 344 l 60 489 l 124 489 l 124 393 q 131 360 124 372 q 157 349 138 349 q 183 360 176 349 q 190 393 190 372 l 190 551 q 179 580 190 574 q 147 586 168 586 l 147 642 q 186 685 186 644 l 186 813 q 179 845 186 833 q 153 857 172 857 q 126 846 132 857 q 119 813 119 835 l 119 717 l 56 717 l 56 814 q 81 890 56 861 q 153 918 106 918 q 224 890 200 918 q 249 814 249 861 l 249 668 q 236 615 249 636 q 249 594 244 604 q 253 568 253 583 l 253 392 q 228 316 253 344 q 157 288 204 288 m 494 917 l 569 917 l 268 -3 l 193 -3 l 494 917 m 492 575 l 554 575 l 554 256 l 608 256 l 608 333 l 671 333 l 671 256 l 732 256 l 732 193 l 671 193 l 671 0 l 608 0 l 608 193 l 492 193 l 492 575 z "},"²":{"ha":304,"x_min":56,"x_max":249,"o":"m 58 465 q 84 548 58 515 q 153 603 110 581 q 177 625 168 610 q 186 658 186 640 l 186 813 q 179 845 186 833 q 153 857 172 857 q 126 846 132 857 q 119 813 119 835 l 119 717 l 56 717 l 56 814 q 81 890 56 861 q 153 918 106 918 q 224 890 200 918 q 249 814 249 861 l 249 658 q 181 553 249 588 q 138 521 154 539 q 122 472 122 503 l 122 360 l 242 360 l 242 297 l 58 297 l 58 465 z "},"³":{"ha":308,"x_min":56,"x_max":253,"o":"m 157 288 q 85 316 110 288 q 60 392 60 344 l 60 489 l 124 489 l 124 393 q 131 360 124 372 q 157 349 138 349 q 183 360 176 349 q 190 393 190 372 l 190 551 q 179 580 190 574 q 147 586 168 586 l 147 642 q 186 685 186 644 l 186 813 q 179 845 186 833 q 153 857 172 857 q 126 846 132 857 q 119 813 119 835 l 119 717 l 56 717 l 56 814 q 81 890 56 861 q 153 918 106 918 q 224 890 200 918 q 249 814 249 861 l 249 668 q 236 615 249 636 q 249 594 244 604 q 253 568 253 583 l 253 392 q 228 316 253 344 q 157 288 204 288 z "},"Á":{"ha":474,"x_min":56,"x_max":418,"o":"m 192 917 l 283 917 l 418 0 l 326 0 l 311 103 l 163 103 l 147 0 l 56 0 l 192 917 m 300 186 l 238 610 l 175 186 l 300 186 z "},"Ă":{"ha":474,"x_min":56,"x_max":418,"o":"m 192 917 l 283 917 l 418 0 l 326 0 l 311 103 l 163 103 l 147 0 l 56 0 l 192 917 m 300 186 l 238 610 l 175 186 l 300 186 z "},"Â":{"ha":474,"x_min":56,"x_max":418,"o":"m 192 917 l 283 917 l 418 0 l 326 0 l 311 103 l 163 103 l 147 0 l 56 0 l 192 917 m 300 186 l 238 610 l 175 186 l 300 186 z "},"Ä":{"ha":474,"x_min":56,"x_max":418,"o":"m 192 917 l 283 917 l 418 0 l 326 0 l 311 103 l 163 103 l 147 0 l 56 0 l 192 917 m 300 186 l 238 610 l 175 186 l 300 186 m 160 978 q 111 998 131 978 q 92 1046 92 1018 q 111 1100 92 1078 q 160 1122 131 1122 q 212 1101 193 1122 q 231 1046 231 1081 q 209 999 231 1019 q 160 978 188 978 m 243 1047 q 263 1101 243 1079 q 313 1124 282 1124 q 363 1103 344 1124 q 382 1047 382 1082 q 361 1000 382 1021 q 313 979 340 979 q 263 999 282 979 q 243 1047 243 1019 z "},"À":{"ha":474,"x_min":56,"x_max":418,"o":"m 192 917 l 283 917 l 418 0 l 326 0 l 311 103 l 163 103 l 147 0 l 56 0 l 192 917 m 300 186 l 238 610 l 175 186 l 300 186 z "},"Ā":{"ha":474,"x_min":56,"x_max":418,"o":"m 192 917 l 283 917 l 418 0 l 326 0 l 311 103 l 163 103 l 147 0 l 56 0 l 192 917 m 300 186 l 238 610 l 175 186 l 300 186 m 72 1097 l 406 1097 l 406 1001 l 72 1001 l 72 1097 z "},"Ą":{"ha":474,"x_min":56,"x_max":463,"o":"m 192 917 l 283 917 l 418 0 l 399 0 q 329 -34 354 -14 q 304 -76 304 -54 q 306 -89 304 -85 q 342 -107 311 -107 q 447 -79 376 -107 l 463 -162 q 346 -193 400 -193 q 265 -172 299 -193 q 221 -119 232 -151 q 214 -82 214 -101 q 240 -6 214 -43 q 318 54 265 31 l 311 103 l 163 103 l 147 0 l 56 0 l 192 917 m 300 186 l 238 610 l 175 186 l 300 186 z "},"Å":{"ha":474,"x_min":56,"x_max":418,"o":"m 192 917 l 283 917 l 418 0 l 326 0 l 311 103 l 163 103 l 147 0 l 56 0 l 192 917 m 300 186 l 238 610 l 175 186 l 300 186 z "},"Ã":{"ha":474,"x_min":25,"x_max":444,"o":"m 192 917 l 283 917 l 418 0 l 326 0 l 311 103 l 163 103 l 147 0 l 56 0 l 192 917 m 300 186 l 238 610 l 175 186 l 300 186 z "},"Æ":{"ha":628,"x_min":56,"x_max":572,"o":"m 186 917 l 275 917 l 329 532 l 329 917 l 572 917 l 572 831 l 424 831 l 424 518 l 549 518 l 549 433 l 424 433 l 424 85 l 572 85 l 572 0 l 317 0 l 301 103 l 158 103 l 144 0 l 56 0 l 186 917 m 290 186 l 231 610 l 171 186 l 290 186 z "},"Ć":{"ha":401,"x_min":56,"x_max":346,"o":"m 200 -14 q 93 28 131 -14 q 56 140 56 71 l 56 775 q 93 888 56 846 q 200 931 131 931 q 308 888 269 931 q 346 775 346 846 l 346 629 l 250 629 l 250 774 q 240 823 250 806 q 200 840 231 840 q 160 823 169 840 q 150 774 150 806 l 150 140 q 160 91 150 108 q 200 74 169 74 q 240 91 231 74 q 250 140 250 108 l 250 282 l 346 282 l 346 140 q 308 28 346 71 q 200 -14 269 -14 z "},"Č":{"ha":401,"x_min":56,"x_max":346,"o":"m 200 -14 q 93 28 131 -14 q 56 140 56 71 l 56 775 q 93 888 56 846 q 200 931 131 931 q 308 888 269 931 q 346 775 346 846 l 346 629 l 250 629 l 250 774 q 240 823 250 806 q 200 840 231 840 q 160 823 169 840 q 150 774 150 806 l 150 140 q 160 91 150 108 q 200 74 169 74 q 240 91 231 74 q 250 140 250 108 l 250 282 l 346 282 l 346 140 q 308 28 346 71 q 200 -14 269 -14 z "},"Ç":{"ha":401,"x_min":56,"x_max":346,"o":"m 61 -196 q 149 -199 133 -199 q 205 -192 188 -199 q 232 -164 222 -185 q 236 -144 236 -154 q 202 -97 236 -117 q 114 -64 168 -76 l 146 -6 q 78 47 101 8 q 56 140 56 86 l 56 775 q 93 888 56 846 q 200 931 131 931 q 308 888 269 931 q 346 775 346 846 l 346 629 l 250 629 l 250 774 q 240 823 250 806 q 200 840 231 840 q 160 823 169 840 q 150 774 150 806 l 150 140 q 160 91 150 108 q 200 74 169 74 q 240 91 231 74 q 250 140 250 108 l 250 282 l 346 282 l 346 140 q 319 42 346 82 q 240 -10 292 1 l 229 -32 q 310 -80 285 -50 q 336 -146 336 -110 q 277 -247 336 -215 q 128 -279 218 -279 q 61 -275 94 -279 l 61 -196 z "},"Ċ":{"ha":401,"x_min":56,"x_max":346,"o":"m 200 -14 q 93 28 131 -14 q 56 140 56 71 l 56 775 q 93 888 56 846 q 200 931 131 931 q 308 888 269 931 q 346 775 346 846 l 346 629 l 250 629 l 250 774 q 240 823 250 806 q 200 840 231 840 q 160 823 169 840 q 150 774 150 806 l 150 140 q 160 91 150 108 q 200 74 169 74 q 240 91 231 74 q 250 140 250 108 l 250 282 l 346 282 l 346 140 q 308 28 346 71 q 200 -14 269 -14 z "},"Ð":{"ha":506,"x_min":56,"x_max":450,"o":"m 163 428 l 56 428 l 56 524 l 163 524 l 163 917 l 278 917 q 411 880 372 917 q 450 768 450 843 l 450 149 q 411 36 450 72 q 278 0 372 0 l 163 0 l 163 428 m 257 85 q 324 92 303 85 q 350 111 344 99 q 356 149 356 124 l 356 768 q 350 806 356 793 q 324 824 344 818 q 257 831 303 831 l 257 524 l 340 524 l 340 428 l 257 428 l 257 85 z "},"Ď":{"ha":399,"x_min":36,"x_max":343,"o":"m 56 917 l 171 917 q 304 880 265 917 q 343 768 343 843 l 343 149 q 304 36 343 72 q 171 0 265 0 l 56 0 l 56 917 m 150 85 q 217 92 196 85 q 243 111 238 99 q 249 149 249 124 l 249 768 q 243 806 249 793 q 217 824 238 818 q 150 831 196 831 l 150 85 z "},"Đ":{"ha":483,"x_min":56,"x_max":450,"o":"m 163 428 l 56 428 l 56 524 l 163 524 l 163 917 l 278 917 q 411 880 372 917 q 450 768 450 843 l 450 149 q 411 36 450 72 q 278 0 372 0 l 163 0 l 163 428 m 257 85 q 324 92 303 85 q 350 111 344 99 q 356 149 356 124 l 356 768 q 350 806 356 793 q 324 824 344 818 q 257 831 303 831 l 257 524 l 340 524 l 340 428 l 257 428 l 257 85 z "},"É":{"ha":354,"x_min":56,"x_max":308,"o":"m 56 917 l 299 917 l 299 831 l 150 831 l 150 518 l 275 518 l 275 433 l 150 433 l 150 85 l 299 85 l 299 0 l 56 0 l 56 917 z "},"Ě":{"ha":354,"x_min":51,"x_max":319,"o":"m 56 917 l 299 917 l 299 831 l 150 831 l 150 518 l 275 518 l 275 433 l 150 433 l 150 85 l 299 85 l 299 0 l 56 0 l 56 917 z "},"Ê":{"ha":354,"x_min":50,"x_max":318,"o":"m 56 917 l 299 917 l 299 831 l 150 831 l 150 518 l 275 518 l 275 433 l 150 433 l 150 85 l 299 85 l 299 0 l 56 0 l 56 917 z "},"Ë":{"ha":354,"x_min":42,"x_max":332,"o":"m 56 917 l 299 917 l 299 831 l 150 831 l 150 518 l 275 518 l 275 433 l 150 433 l 150 85 l 299 85 l 299 0 l 56 0 l 56 917 m 110 944 q 61 965 81 944 q 42 1013 42 985 q 61 1067 42 1044 q 110 1089 81 1089 q 162 1068 143 1089 q 181 1013 181 1047 q 159 965 181 986 q 110 944 138 944 m 193 1014 q 213 1068 193 1046 q 263 1090 232 1090 q 313 1069 294 1090 q 332 1014 332 1049 q 311 967 332 988 q 263 946 290 946 q 213 966 232 946 q 193 1014 193 986 z "},"Ė":{"ha":354,"x_min":56,"x_max":299,"o":"m 56 917 l 299 917 l 299 831 l 150 831 l 150 518 l 275 518 l 275 433 l 150 433 l 150 85 l 299 85 l 299 0 l 56 0 l 56 917 z "},"È":{"ha":354,"x_min":56,"x_max":299,"o":"m 56 917 l 299 917 l 299 831 l 150 831 l 150 518 l 275 518 l 275 433 l 150 433 l 150 85 l 299 85 l 299 0 l 56 0 l 56 917 z "},"Ē":{"ha":354,"x_min":56,"x_max":315,"o":"m 56 917 l 299 917 l 299 831 l 150 831 l 150 518 l 275 518 l 275 433 l 150 433 l 150 85 l 299 85 l 299 0 l 56 0 l 56 917 m 63 1064 l 315 1064 l 315 968 l 63 968 l 63 1064 z "},"Ę":{"ha":399,"x_min":56,"x_max":343,"o":"m 56 917 l 299 917 l 299 831 l 150 831 l 150 518 l 275 518 l 275 433 l 150 433 l 150 85 l 299 85 l 299 0 l 275 0 q 209 -34 233 -14 q 185 -76 185 -54 q 224 -106 185 -106 q 328 -78 260 -106 l 343 -161 q 226 -192 281 -192 q 146 -171 179 -192 q 101 -118 113 -150 q 96 -82 96 -103 q 125 0 96 -37 l 56 0 l 56 917 z "},"Ğ":{"ha":401,"x_min":15,"x_max":371,"o":"m 200 -14 q 93 28 131 -14 q 56 140 56 71 l 56 775 q 93 888 56 846 q 200 931 131 931 q 308 888 269 931 q 346 774 346 844 l 346 629 l 250 629 l 250 774 q 240 823 250 806 q 200 840 231 840 q 160 823 169 840 q 150 774 150 806 l 150 139 q 160 90 150 107 q 200 74 169 74 q 240 90 231 74 q 250 139 250 107 l 250 433 l 199 433 l 199 518 l 346 518 l 346 139 q 308 28 346 69 q 200 -14 271 -14 z "},"Ģ":{"ha":401,"x_min":56,"x_max":346,"o":"m 200 -14 q 93 28 131 -14 q 56 140 56 71 l 56 775 q 93 888 56 846 q 200 931 131 931 q 308 888 269 931 q 346 774 346 844 l 346 629 l 250 629 l 250 774 q 240 823 250 806 q 200 840 231 840 q 160 823 169 840 q 150 774 150 806 l 150 139 q 160 90 150 107 q 200 74 169 74 q 240 90 231 74 q 250 139 250 107 l 250 433 l 199 433 l 199 518 l 346 518 l 346 139 q 308 28 346 69 q 200 -14 271 -14 z "},"Ġ":{"ha":401,"x_min":56,"x_max":346,"o":"m 200 -14 q 93 28 131 -14 q 56 140 56 71 l 56 775 q 93 888 56 846 q 200 931 131 931 q 308 888 269 931 q 346 774 346 844 l 346 629 l 250 629 l 250 774 q 240 823 250 806 q 200 840 231 840 q 160 823 169 840 q 150 774 150 806 l 150 139 q 160 90 150 107 q 200 74 169 74 q 240 90 231 74 q 250 139 250 107 l 250 433 l 199 433 l 199 518 l 346 518 l 346 139 q 308 28 346 69 q 200 -14 271 -14 z "},"Ħ":{"ha":606,"x_min":83,"x_max":522,"o":"m 140 642 l 83 642 l 83 726 l 140 726 l 140 917 l 236 917 l 236 726 l 369 726 l 369 917 l 465 917 l 465 726 l 522 726 l 522 642 l 465 642 l 465 0 l 369 0 l 369 433 l 236 433 l 236 0 l 140 0 l 140 642 m 369 518 l 369 642 l 236 642 l 236 518 l 369 518 z "},"Í":{"ha":278,"x_min":56,"x_max":222,"o":"m 64 917 l 158 917 l 158 0 l 64 0 l 64 917 z "},"Î":{"ha":379,"x_min":56,"x_max":324,"o":"m 156 917 l 250 917 l 250 0 l 156 0 l 156 917 z "},"Ï":{"ha":401,"x_min":56,"x_max":346,"o":"m 164 917 l 258 917 l 258 0 l 164 0 l 164 917 m 124 944 q 75 965 94 944 q 56 1013 56 985 q 75 1067 56 1044 q 124 1089 94 1089 q 176 1068 157 1089 q 194 1013 194 1047 q 173 965 194 986 q 124 944 151 944 m 207 1014 q 226 1068 207 1046 q 276 1090 246 1090 q 327 1069 308 1090 q 346 1014 346 1049 q 325 967 346 988 q 276 946 304 946 q 226 966 246 946 q 207 1014 207 986 z "},"İ":{"ha":251,"x_min":56,"x_max":196,"o":"m 78 917 l 172 917 l 172 0 l 78 0 l 78 917 m 125 944 q 76 965 96 944 q 56 1014 56 986 q 76 1063 56 1040 q 125 1085 97 1085 q 176 1064 157 1085 q 196 1014 196 1043 q 174 965 196 986 q 125 944 153 944 z "},"Ì":{"ha":278,"x_min":56,"x_max":222,"o":"m 124 917 l 218 917 l 218 0 l 124 0 l 124 917 z "},"Ī":{"ha":444,"x_min":56,"x_max":389,"o":"m 172 917 l 267 917 l 267 0 l 172 0 l 172 917 m 56 1064 l 389 1064 l 389 968 l 56 968 l 56 1064 z "},"Į":{"ha":358,"x_min":18,"x_max":267,"o":"m 267 -160 q 150 -190 204 -190 q 69 -169 103 -190 q 25 -117 36 -149 q 18 -79 18 -99 q 44 -3 18 -40 q 122 57 69 33 l 122 917 l 217 917 l 217 0 l 194 0 q 131 -33 154 -14 q 108 -75 108 -53 q 110 -86 108 -82 q 146 -104 115 -104 q 251 -76 181 -104 l 267 -160 z "},"Ķ":{"ha":456,"x_min":56,"x_max":400,"o":"m 56 917 l 151 917 l 150 407 l 294 917 l 390 917 l 222 331 l 400 0 l 304 0 l 151 275 l 151 0 l 56 0 l 56 917 z "},"Ĺ":{"ha":354,"x_min":56,"x_max":338,"o":"m 56 917 l 150 917 l 150 85 l 299 85 l 299 0 l 56 0 l 56 917 z "},"Ľ":{"ha":354,"x_min":56,"x_max":349,"o":"m 56 917 l 150 917 l 150 85 l 299 85 l 299 0 l 56 0 l 56 917 z "},"Ļ":{"ha":354,"x_min":56,"x_max":299,"o":"m 56 917 l 150 917 l 150 85 l 299 85 l 299 0 l 56 0 l 56 917 z "},"Ł":{"ha":494,"x_min":56,"x_max":439,"o":"m 183 468 l 89 433 l 56 524 l 183 571 l 183 917 l 278 917 l 278 604 l 406 651 l 439 561 l 278 503 l 278 85 l 426 85 l 426 0 l 183 0 l 183 468 z "},"Ń":{"ha":442,"x_min":56,"x_max":386,"o":"m 56 917 l 150 917 l 150 747 l 292 415 l 292 917 l 386 917 l 386 0 l 292 0 l 292 183 l 150 506 l 150 0 l 56 0 l 56 917 z "},"Ň":{"ha":442,"x_min":56,"x_max":386,"o":"m 56 917 l 150 917 l 150 747 l 292 415 l 292 917 l 386 917 l 386 0 l 292 0 l 292 183 l 150 506 l 150 0 l 56 0 l 56 917 z "},"Ņ":{"ha":442,"x_min":56,"x_max":386,"o":"m 56 917 l 150 917 l 150 747 l 292 415 l 292 917 l 386 917 l 386 0 l 292 0 l 292 183 l 150 506 l 150 0 l 56 0 l 56 917 z "},"Ñ":{"ha":442,"x_min":6,"x_max":425,"o":"m 56 917 l 150 917 l 150 747 l 292 415 l 292 917 l 386 917 l 386 0 l 292 0 l 292 183 l 150 506 l 150 0 l 56 0 l 56 917 z "},"Ŋ":{"ha":442,"x_min":56,"x_max":386,"o":"m 168 -106 q 257 -76 222 -106 q 292 3 292 -47 l 292 183 l 150 506 l 150 0 l 56 0 l 56 917 l 150 917 l 150 747 l 292 415 l 292 917 l 386 917 l 386 0 q 357 -104 386 -56 q 278 -181 328 -153 q 168 -210 228 -210 l 168 -106 z "},"Ó":{"ha":401,"x_min":56,"x_max":346,"o":"m 200 -4 q 93 38 131 -4 q 56 150 56 81 l 56 761 q 93 874 56 832 q 200 917 131 917 q 308 874 269 917 q 346 761 346 832 l 346 150 q 308 38 346 81 q 200 -4 269 -4 m 150 153 q 160 102 150 121 q 200 83 169 83 q 240 102 231 83 q 250 153 250 121 l 250 760 q 240 809 250 792 q 200 826 231 826 q 160 809 169 826 q 150 760 150 792 l 150 153 z "},"Ô":{"ha":401,"x_min":56,"x_max":346,"o":"m 200 -4 q 93 38 131 -4 q 56 150 56 81 l 56 761 q 93 874 56 832 q 200 917 131 917 q 308 874 269 917 q 346 761 346 832 l 346 150 q 308 38 346 81 q 200 -4 269 -4 m 150 153 q 160 102 150 121 q 200 83 169 83 q 240 102 231 83 q 250 153 250 121 l 250 760 q 240 809 250 792 q 200 826 231 826 q 160 809 169 826 q 150 760 150 792 l 150 153 z "},"Ö":{"ha":401,"x_min":50,"x_max":346,"o":"m 200 -4 q 93 38 131 -4 q 56 150 56 81 l 56 761 q 93 874 56 832 q 200 917 131 917 q 308 874 269 917 q 346 761 346 832 l 346 150 q 308 38 346 81 q 200 -4 269 -4 m 150 153 q 160 102 150 121 q 200 83 169 83 q 240 102 231 83 q 250 153 250 121 l 250 760 q 240 809 250 792 q 200 826 231 826 q 160 809 169 826 q 150 760 150 792 l 150 153 m 118 960 q 69 980 89 960 q 50 1028 50 1000 q 69 1082 50 1060 q 118 1104 89 1104 q 170 1083 151 1104 q 189 1028 189 1063 q 167 981 189 1001 q 118 960 146 960 m 201 1029 q 221 1083 201 1061 q 271 1106 240 1106 q 322 1085 303 1106 q 340 1029 340 1064 q 319 982 340 1003 q 271 961 299 961 q 221 981 240 961 q 201 1029 201 1001 z "},"Ò":{"ha":401,"x_min":56,"x_max":346,"o":"m 200 -4 q 93 38 131 -4 q 56 150 56 81 l 56 761 q 93 874 56 832 q 200 917 131 917 q 308 874 269 917 q 346 761 346 832 l 346 150 q 308 38 346 81 q 200 -4 269 -4 m 150 153 q 160 102 150 121 q 200 83 169 83 q 240 102 231 83 q 250 153 250 121 l 250 760 q 240 809 250 792 q 200 826 231 826 q 160 809 169 826 q 150 760 150 792 l 150 153 z "},"Ő":{"ha":401,"x_min":56,"x_max":381,"o":"m 200 -4 q 93 38 131 -4 q 56 150 56 81 l 56 761 q 93 874 56 832 q 200 917 131 917 q 308 874 269 917 q 346 761 346 832 l 346 150 q 308 38 346 81 q 200 -4 269 -4 m 150 153 q 160 102 150 121 q 200 83 169 83 q 240 102 231 83 q 250 153 250 121 l 250 760 q 240 809 250 792 q 200 826 231 826 q 160 809 169 826 q 150 760 150 792 l 150 153 z "},"Ō":{"ha":401,"x_min":31,"x_max":364,"o":"m 200 -4 q 93 38 131 -4 q 56 150 56 81 l 56 761 q 93 874 56 832 q 200 917 131 917 q 308 874 269 917 q 346 761 346 832 l 346 150 q 308 38 346 81 q 200 -4 269 -4 m 150 153 q 160 102 150 121 q 200 83 169 83 q 240 102 231 83 q 250 153 250 121 l 250 760 q 240 809 250 792 q 200 826 231 826 q 160 809 169 826 q 150 760 150 792 l 150 153 m 31 1079 l 364 1079 l 364 983 l 31 983 l 31 1079 z "},"Ø":{"ha":593,"x_min":56,"x_max":538,"o":"m 276 -4 q 197 15 229 -4 l 151 -117 l 56 -117 l 135 113 q 132 150 132 135 l 132 761 q 169 874 132 832 q 276 917 207 917 q 396 860 357 917 l 442 993 l 538 993 l 422 661 l 422 150 q 384 38 422 81 q 276 -4 346 -4 m 326 661 l 326 760 q 317 809 326 792 q 276 826 307 826 q 236 809 246 826 q 226 760 226 792 l 226 375 l 326 661 m 232 113 q 276 83 242 83 q 317 102 307 83 q 326 153 326 121 l 326 386 l 232 113 z "},"Õ":{"ha":401,"x_min":6,"x_max":382,"o":"m 200 -4 q 93 38 131 -4 q 56 150 56 81 l 56 761 q 93 874 56 832 q 200 917 131 917 q 308 874 269 917 q 346 761 346 832 l 346 150 q 308 38 346 81 q 200 -4 269 -4 m 6 969 q 51 1052 15 1018 q 129 1086 86 1086 q 161 1081 146 1086 l 236 1057 q 254 1054 247 1054 q 282 1064 269 1054 q 300 1092 294 1074 l 382 1072 q 335 998 369 1024 q 261 972 301 972 q 225 978 242 972 l 171 997 q 140 1003 156 1003 q 92 961 106 1003 l 6 969 m 150 153 q 160 102 150 121 q 200 83 169 83 q 240 102 231 83 q 250 153 250 121 l 250 760 q 240 809 250 792 q 200 826 231 826 q 160 809 169 826 q 150 760 150 792 l 150 153 z "},"Œ":{"ha":551,"x_min":56,"x_max":496,"o":"m 200 -4 q 93 38 131 -4 q 56 150 56 81 l 56 761 q 93 874 56 832 q 200 917 131 917 q 253 910 228 917 l 253 917 l 496 917 l 496 831 l 347 831 l 347 518 l 472 518 l 472 433 l 347 433 l 347 85 l 496 85 l 496 0 l 253 0 l 253 3 q 200 -4 228 -4 m 150 153 q 160 102 150 121 q 200 83 169 83 q 240 102 231 83 q 250 153 250 121 l 250 760 q 240 809 250 792 q 200 826 231 826 q 160 809 169 826 q 150 760 150 792 l 150 153 z "},"Þ":{"ha":401,"x_min":56,"x_max":346,"o":"m 56 917 l 150 917 l 150 807 l 200 808 q 308 767 269 810 q 346 653 346 724 l 346 306 q 308 194 346 236 q 200 151 269 151 l 150 151 l 150 0 l 56 0 l 56 917 m 200 239 q 240 258 231 239 q 250 308 250 276 l 250 651 q 240 701 250 683 q 200 718 231 718 l 150 718 l 150 239 l 200 239 z "},"Ŕ":{"ha":386,"x_min":56,"x_max":331,"o":"m 56 917 l 172 917 q 293 881 256 917 q 331 786 331 846 l 331 567 q 296 475 331 506 q 331 369 331 453 l 331 0 l 236 0 l 236 369 q 220 420 236 407 q 172 433 204 433 l 150 433 l 150 0 l 56 0 l 56 917 m 150 518 q 208 520 193 518 q 230 532 224 522 q 236 567 236 542 l 236 786 q 228 817 236 808 q 204 828 219 826 q 150 832 189 831 l 150 518 z "},"Ř":{"ha":386,"x_min":51,"x_max":331,"o":"m 56 917 l 172 917 q 293 881 256 917 q 331 786 331 846 l 331 567 q 296 475 331 506 q 331 369 331 453 l 331 0 l 236 0 l 236 369 q 220 420 236 407 q 172 433 204 433 l 150 433 l 150 0 l 56 0 l 56 917 m 150 518 q 208 520 193 518 q 230 532 224 522 q 236 567 236 542 l 236 786 q 228 817 236 808 q 204 828 219 826 q 150 832 189 831 l 150 518 z "},"Ŗ":{"ha":386,"x_min":56,"x_max":331,"o":"m 56 917 l 172 917 q 293 881 256 917 q 331 786 331 846 l 331 567 q 296 475 331 506 q 331 369 331 453 l 331 0 l 236 0 l 236 369 q 220 420 236 407 q 172 433 204 433 l 150 433 l 150 0 l 56 0 l 56 917 m 150 518 q 208 520 193 518 q 230 532 224 522 q 236 567 236 542 l 236 786 q 228 817 236 808 q 204 828 219 826 q 150 832 189 831 l 150 518 z "},"Ś":{"ha":403,"x_min":56,"x_max":347,"o":"m 201 -14 q 94 28 132 -14 q 56 140 56 71 l 56 282 l 151 282 l 151 143 q 161 92 151 111 q 201 74 171 74 q 242 92 232 74 q 251 143 251 111 l 251 349 q 200 428 251 406 q 92 497 126 458 q 57 599 57 535 l 57 774 q 94 888 57 844 q 201 931 132 931 q 309 888 271 931 q 347 774 347 844 l 347 629 l 251 629 l 251 774 q 242 823 251 806 q 201 840 232 840 q 161 823 171 840 q 151 774 151 806 l 151 599 q 200 525 151 543 q 346 349 346 471 l 346 140 q 308 28 346 71 q 201 -14 271 -14 z "},"Š":{"ha":403,"x_min":56,"x_max":347,"o":"m 201 -14 q 94 28 132 -14 q 56 140 56 71 l 56 282 l 151 282 l 151 143 q 161 92 151 111 q 201 74 171 74 q 242 92 232 74 q 251 143 251 111 l 251 349 q 200 428 251 406 q 92 497 126 458 q 57 599 57 535 l 57 774 q 94 888 57 844 q 201 931 132 931 q 309 888 271 931 q 347 774 347 844 l 347 629 l 251 629 l 251 774 q 242 823 251 806 q 201 840 232 840 q 161 823 171 840 q 151 774 151 806 l 151 599 q 200 525 151 543 q 346 349 346 471 l 346 140 q 308 28 346 71 q 201 -14 271 -14 z "},"Ş":{"ha":403,"x_min":51,"x_max":347,"o":"m 51 -215 q 139 -218 124 -218 q 195 -211 178 -218 q 222 -183 213 -204 q 226 -164 226 -174 q 192 -116 226 -136 q 104 -83 158 -96 l 146 -6 q 78 48 101 10 q 56 140 56 86 l 56 282 l 151 282 l 151 143 q 161 92 151 111 q 201 74 171 74 q 242 92 232 74 q 251 143 251 111 l 251 349 q 200 428 251 406 q 92 497 126 458 q 57 599 57 535 l 57 774 q 94 888 57 844 q 201 931 132 931 q 309 888 271 931 q 347 774 347 844 l 347 629 l 251 629 l 251 774 q 242 823 251 806 q 201 840 232 840 q 161 823 171 840 q 151 774 151 806 l 151 599 q 200 525 151 543 q 346 349 346 471 l 346 140 q 319 42 346 82 q 240 -10 292 1 l 219 -51 q 301 -99 275 -69 q 326 -165 326 -129 q 267 -267 326 -235 q 118 -299 208 -299 q 51 -294 85 -299 l 51 -215 z "},"Ș":{"ha":403,"x_min":56,"x_max":347,"o":"m 201 -14 q 94 28 132 -14 q 56 140 56 71 l 56 282 l 151 282 l 151 143 q 161 92 151 111 q 201 74 171 74 q 242 92 232 74 q 251 143 251 111 l 251 349 q 200 428 251 406 q 92 497 126 458 q 57 599 57 535 l 57 774 q 94 888 57 844 q 201 931 132 931 q 309 888 271 931 q 347 774 347 844 l 347 629 l 251 629 l 251 774 q 242 823 251 806 q 201 840 232 840 q 161 823 171 840 q 151 774 151 806 l 151 599 q 200 525 151 543 q 346 349 346 471 l 346 140 q 308 28 346 71 q 201 -14 271 -14 z "},"ẞ":{"ha":433,"x_min":56,"x_max":378,"o":"m 56 917 l 378 917 l 331 563 q 317 519 326 532 q 272 492 307 506 q 343 393 343 471 l 343 142 q 310 39 343 72 q 197 0 278 6 l 197 86 q 240 99 232 89 q 249 142 249 110 l 249 393 q 236 422 249 414 q 197 432 224 431 l 197 519 q 236 571 229 525 l 269 831 l 150 831 l 150 0 l 56 0 l 56 917 z "},"Ŧ":{"ha":483,"x_min":56,"x_max":428,"o":"m 186 461 l 56 461 l 56 557 l 186 557 l 186 833 l 97 833 l 97 917 l 368 917 l 368 833 l 281 833 l 281 557 l 428 557 l 428 461 l 281 461 l 281 0 l 186 0 l 186 461 z "},"Ť":{"ha":382,"x_min":42,"x_max":326,"o":"m 144 833 l 56 833 l 56 917 l 326 917 l 326 833 l 239 833 l 239 0 l 144 0 l 144 833 z "},"Ţ":{"ha":382,"x_min":28,"x_max":326,"o":"m 28 -210 q 115 -212 100 -212 q 172 -206 154 -212 q 199 -178 189 -199 q 203 -158 203 -168 q 169 -110 203 -131 q 81 -78 135 -90 l 143 39 l 144 39 l 144 833 l 56 833 l 56 917 l 326 917 l 326 833 l 239 833 l 239 0 l 219 0 l 196 -46 q 277 -94 251 -64 q 303 -160 303 -124 q 244 -261 303 -229 q 94 -293 185 -293 q 28 -289 61 -293 l 28 -210 z "},"Ț":{"ha":382,"x_min":56,"x_max":326,"o":"m 144 833 l 56 833 l 56 917 l 326 917 l 326 833 l 239 833 l 239 0 l 144 0 l 144 833 z "},"Ú":{"ha":404,"x_min":56,"x_max":349,"o":"m 201 -14 q 94 35 132 -14 q 56 154 56 83 l 56 917 l 151 917 l 151 154 q 201 75 151 75 q 253 154 253 75 l 253 917 l 349 917 l 349 154 q 310 35 349 83 q 201 -14 271 -14 z "},"Û":{"ha":404,"x_min":56,"x_max":349,"o":"m 201 -14 q 94 35 132 -14 q 56 154 56 83 l 56 917 l 151 917 l 151 154 q 201 75 151 75 q 253 154 253 75 l 253 917 l 349 917 l 349 154 q 310 35 349 83 q 201 -14 271 -14 z "},"Ü":{"ha":404,"x_min":47,"x_max":349,"o":"m 201 -14 q 94 35 132 -14 q 56 154 56 83 l 56 917 l 151 917 l 151 154 q 201 75 151 75 q 253 154 253 75 l 253 917 l 349 917 l 349 154 q 310 35 349 83 q 201 -14 271 -14 m 115 958 q 67 978 86 958 q 47 1026 47 999 q 67 1081 47 1058 q 115 1103 86 1103 q 167 1082 149 1103 q 186 1026 186 1061 q 165 979 186 1000 q 115 958 143 958 m 199 1028 q 218 1082 199 1060 q 268 1104 238 1104 q 319 1083 300 1104 q 338 1028 338 1063 q 317 981 338 1001 q 268 960 296 960 q 218 980 238 960 q 199 1028 199 1000 z "},"Ù":{"ha":404,"x_min":56,"x_max":349,"o":"m 201 -14 q 94 35 132 -14 q 56 154 56 83 l 56 917 l 151 917 l 151 154 q 201 75 151 75 q 253 154 253 75 l 253 917 l 349 917 l 349 154 q 310 35 349 83 q 201 -14 271 -14 z "},"Ű":{"ha":404,"x_min":56,"x_max":378,"o":"m 201 -14 q 94 35 132 -14 q 56 154 56 83 l 56 917 l 151 917 l 151 154 q 201 75 151 75 q 253 154 253 75 l 253 917 l 349 917 l 349 154 q 310 35 349 83 q 201 -14 271 -14 z "},"Ū":{"ha":404,"x_min":28,"x_max":361,"o":"m 201 -14 q 94 35 132 -14 q 56 154 56 83 l 56 917 l 151 917 l 151 154 q 201 75 151 75 q 253 154 253 75 l 253 917 l 349 917 l 349 154 q 310 35 349 83 q 201 -14 271 -14 m 28 1078 l 361 1078 l 361 982 l 28 982 l 28 1078 z "},"Ų":{"ha":404,"x_min":54,"x_max":349,"o":"m 303 -174 q 186 -204 240 -204 q 106 -183 139 -204 q 61 -131 72 -162 q 54 -93 54 -112 q 113 15 54 -31 q 70 75 85 39 q 56 154 56 111 l 56 917 l 151 917 l 151 154 q 201 75 151 75 q 253 154 253 75 l 253 917 l 349 917 l 349 154 q 322 52 349 96 q 247 -7 296 8 l 247 -8 q 172 -44 200 -22 q 144 -89 144 -65 q 182 -118 144 -118 q 288 -90 217 -118 l 303 -174 z "},"Ů":{"ha":404,"x_min":56,"x_max":349,"o":"m 201 -14 q 94 35 132 -14 q 56 154 56 83 l 56 917 l 151 917 l 151 154 q 201 75 151 75 q 253 154 253 75 l 253 917 l 349 917 l 349 154 q 310 35 349 83 q 201 -14 271 -14 z "},"Ẃ":{"ha":628,"x_min":56,"x_max":572,"o":"m 56 917 l 147 917 l 221 358 l 283 629 l 344 629 l 408 358 l 481 917 l 572 917 l 450 0 l 360 0 l 314 372 l 269 0 l 178 0 l 56 917 z "},"Ŵ":{"ha":628,"x_min":56,"x_max":572,"o":"m 56 917 l 147 917 l 221 358 l 283 629 l 344 629 l 408 358 l 481 917 l 572 917 l 450 0 l 360 0 l 314 372 l 269 0 l 178 0 l 56 917 z "},"Ẅ":{"ha":628,"x_min":56,"x_max":572,"o":"m 56 917 l 147 917 l 221 358 l 283 629 l 344 629 l 408 358 l 481 917 l 572 917 l 450 0 l 360 0 l 314 372 l 269 0 l 178 0 l 56 917 m 225 938 q 176 958 196 938 q 157 1006 157 978 q 176 1060 157 1038 q 225 1082 196 1082 q 277 1061 258 1082 q 296 1006 296 1040 q 274 958 296 979 q 225 938 253 938 m 308 1007 q 328 1061 308 1039 q 378 1083 347 1083 q 428 1063 410 1083 q 447 1007 447 1042 q 426 960 447 981 q 378 939 406 939 q 328 959 347 939 q 308 1007 308 979 z "},"Ẁ":{"ha":628,"x_min":56,"x_max":572,"o":"m 56 917 l 147 917 l 221 358 l 283 629 l 344 629 l 408 358 l 481 917 l 572 917 l 450 0 l 360 0 l 314 372 l 269 0 l 178 0 l 56 917 z "},"Ý":{"ha":431,"x_min":56,"x_max":375,"o":"m 168 433 l 56 917 l 151 917 l 215 615 l 279 917 l 375 917 l 263 433 l 263 0 l 168 0 l 168 433 z "},"Ŷ":{"ha":431,"x_min":56,"x_max":375,"o":"m 168 433 l 56 917 l 151 917 l 215 615 l 279 917 l 375 917 l 263 433 l 263 0 l 168 0 l 168 433 z "},"Ÿ":{"ha":431,"x_min":51,"x_max":375,"o":"m 168 433 l 56 917 l 151 917 l 215 615 l 279 917 l 375 917 l 263 433 l 263 0 l 168 0 l 168 433 m 119 950 q 71 970 90 950 q 51 1018 51 990 q 71 1072 51 1050 q 119 1094 90 1094 q 172 1074 153 1094 q 190 1018 190 1053 q 169 971 190 992 q 119 950 147 950 m 203 1019 q 222 1074 203 1051 q 272 1096 242 1096 q 323 1075 304 1096 q 342 1019 342 1054 q 321 972 342 993 q 272 951 300 951 q 222 972 242 951 q 203 1019 203 992 z "},"Ỳ":{"ha":431,"x_min":56,"x_max":375,"o":"m 168 433 l 56 917 l 151 917 l 215 615 l 279 917 l 375 917 l 263 433 l 263 0 l 168 0 l 168 433 z "},"Ź":{"ha":369,"x_min":56,"x_max":314,"o":"m 56 86 l 224 831 l 56 831 l 56 917 l 314 917 l 314 831 l 149 86 l 314 86 l 314 0 l 56 0 l 56 86 z "},"Ž":{"ha":369,"x_min":31,"x_max":314,"o":"m 56 86 l 224 831 l 56 831 l 56 917 l 314 917 l 314 831 l 149 86 l 314 86 l 314 0 l 56 0 l 56 86 z "},"Ż":{"ha":369,"x_min":56,"x_max":314,"o":"m 56 86 l 224 831 l 56 831 l 56 917 l 314 917 l 314 831 l 149 86 l 314 86 l 314 0 l 56 0 l 56 86 z "},"á":{"ha":401,"x_min":56,"x_max":346,"o":"m 200 -14 q 93 28 131 -14 q 56 140 56 71 l 56 326 q 93 440 56 397 q 200 482 131 482 l 250 482 l 250 561 q 240 610 250 593 q 200 628 231 628 q 160 610 169 628 q 150 561 150 593 l 150 518 l 56 518 l 56 563 q 93 676 56 633 q 200 718 131 718 q 308 676 269 718 q 346 563 346 633 l 346 140 q 308 28 346 71 q 200 -14 269 -14 m 150 143 q 200 74 150 74 q 240 92 231 74 q 250 143 250 111 l 250 392 l 200 392 q 160 374 169 392 q 150 325 150 357 l 150 143 z "},"ă":{"ha":467,"x_min":56,"x_max":411,"o":"m 228 -14 q 121 28 158 -14 q 83 140 83 71 l 83 326 q 121 440 83 397 q 228 482 158 482 l 278 482 l 278 561 q 268 610 278 593 q 228 628 258 628 q 188 610 197 628 q 178 561 178 593 l 178 518 l 83 518 l 83 563 q 121 676 83 633 q 228 718 158 718 q 335 676 297 718 q 374 563 374 633 l 374 140 q 335 28 374 71 q 228 -14 297 -14 m 178 143 q 228 74 178 74 q 268 92 258 74 q 278 143 278 111 l 278 392 l 228 392 q 188 374 197 392 q 178 325 178 357 l 178 143 z "},"â":{"ha":401,"x_min":56,"x_max":346,"o":"m 200 -14 q 93 28 131 -14 q 56 140 56 71 l 56 326 q 93 440 56 397 q 200 482 131 482 l 250 482 l 250 561 q 240 610 250 593 q 200 628 231 628 q 160 610 169 628 q 150 561 150 593 l 150 518 l 56 518 l 56 563 q 93 676 56 633 q 200 718 131 718 q 308 676 269 718 q 346 563 346 633 l 346 140 q 308 28 346 71 q 200 -14 269 -14 m 150 143 q 200 74 150 74 q 240 92 231 74 q 250 143 250 111 l 250 392 l 200 392 q 160 374 169 392 q 150 325 150 357 l 150 143 z "},"ä":{"ha":401,"x_min":56,"x_max":357,"o":"m 200 -14 q 93 28 131 -14 q 56 140 56 71 l 56 326 q 93 440 56 397 q 200 482 131 482 l 250 482 l 250 561 q 240 610 250 593 q 200 628 231 628 q 160 610 169 628 q 150 561 150 593 l 150 518 l 56 518 l 56 563 q 93 676 56 633 q 200 718 131 718 q 308 676 269 718 q 346 563 346 633 l 346 140 q 308 28 346 71 q 200 -14 269 -14 m 150 143 q 200 74 150 74 q 240 92 231 74 q 250 143 250 111 l 250 392 l 200 392 q 160 374 169 392 q 150 325 150 357 l 150 143 m 135 758 q 86 778 106 758 q 67 826 67 799 q 86 881 67 858 q 135 903 106 903 q 187 882 168 903 q 206 826 206 861 q 184 779 206 800 q 135 758 163 758 m 218 828 q 238 882 218 860 q 288 904 257 904 q 338 883 319 904 q 357 828 357 863 q 336 781 357 801 q 288 760 315 760 q 238 780 257 760 q 218 828 218 800 z "},"à":{"ha":401,"x_min":56,"x_max":346,"o":"m 200 -14 q 93 28 131 -14 q 56 140 56 71 l 56 326 q 93 440 56 397 q 200 482 131 482 l 250 482 l 250 561 q 240 610 250 593 q 200 628 231 628 q 160 610 169 628 q 150 561 150 593 l 150 518 l 56 518 l 56 563 q 93 676 56 633 q 200 718 131 718 q 308 676 269 718 q 346 563 346 633 l 346 140 q 308 28 346 71 q 200 -14 269 -14 m 150 143 q 200 74 150 74 q 240 92 231 74 q 250 143 250 111 l 250 392 l 200 392 q 160 374 169 392 q 150 325 150 357 l 150 143 z "},"ā":{"ha":401,"x_min":47,"x_max":381,"o":"m 200 -14 q 93 28 131 -14 q 56 140 56 71 l 56 326 q 93 440 56 397 q 200 482 131 482 l 250 482 l 250 561 q 240 610 250 593 q 200 628 231 628 q 160 610 169 628 q 150 561 150 593 l 150 518 l 56 518 l 56 563 q 93 676 56 633 q 200 718 131 718 q 308 676 269 718 q 346 563 346 633 l 346 140 q 308 28 346 71 q 200 -14 269 -14 m 150 143 q 200 74 150 74 q 240 92 231 74 q 250 143 250 111 l 250 392 l 200 392 q 160 374 169 392 q 150 325 150 357 l 150 143 m 47 878 l 381 878 l 381 782 l 47 782 l 47 878 z "},"ą":{"ha":401,"x_min":56,"x_max":346,"o":"m 331 -161 q 214 -192 268 -192 q 133 -171 167 -192 q 89 -118 100 -150 q 83 -81 83 -103 q 118 7 83 -32 q 56 140 56 47 l 56 326 q 93 440 56 397 q 200 482 131 482 l 250 482 l 250 561 q 240 610 250 593 q 200 628 231 628 q 160 610 169 628 q 150 561 150 593 l 150 518 l 56 518 l 56 563 q 93 676 56 633 q 200 718 131 718 q 308 676 269 718 q 346 563 346 633 l 346 140 q 317 39 346 79 q 235 -11 289 -1 q 172 -76 172 -40 q 174 -87 172 -83 q 210 -106 179 -106 q 315 -78 244 -106 l 331 -161 m 150 143 q 200 74 150 74 q 240 92 231 74 q 250 143 250 111 l 250 392 l 200 392 q 160 374 169 392 q 150 325 150 357 l 150 143 z "},"å":{"ha":401,"x_min":56,"x_max":346,"o":"m 200 -14 q 93 28 131 -14 q 56 140 56 71 l 56 326 q 93 440 56 397 q 200 482 131 482 l 250 482 l 250 561 q 240 610 250 593 q 200 628 231 628 q 160 610 169 628 q 150 561 150 593 l 150 518 l 56 518 l 56 563 q 93 676 56 633 q 200 718 131 718 q 308 676 269 718 q 346 563 346 633 l 346 140 q 308 28 346 71 q 200 -14 269 -14 m 150 143 q 200 74 150 74 q 240 92 231 74 q 250 143 250 111 l 250 392 l 200 392 q 160 374 169 392 q 150 325 150 357 l 150 143 z "},"ã":{"ha":401,"x_min":39,"x_max":383,"o":"m 200 -14 q 93 28 131 -14 q 56 140 56 71 l 56 326 q 93 440 56 397 q 200 482 131 482 l 250 482 l 250 561 q 240 610 250 593 q 200 628 231 628 q 160 610 169 628 q 150 561 150 593 l 150 518 l 56 518 l 56 563 q 93 676 56 633 q 200 718 131 718 q 308 676 269 718 q 346 563 346 633 l 346 140 q 308 28 346 71 q 200 -14 269 -14 m 39 768 q 79 844 47 814 q 150 875 111 875 q 181 869 168 875 l 250 849 q 268 846 256 846 q 293 855 282 846 q 308 881 304 864 l 383 861 q 340 793 371 817 q 272 769 310 769 q 239 775 254 769 l 190 793 q 163 799 178 799 q 117 760 131 799 l 39 768 m 150 143 q 200 74 150 74 q 240 92 231 74 q 250 143 250 111 l 250 392 l 200 392 q 160 374 169 392 q 150 325 150 357 l 150 143 z "},"æ":{"ha":594,"x_min":56,"x_max":539,"o":"m 199 -14 q 92 27 129 -14 q 56 136 56 68 l 56 317 q 92 426 56 385 q 199 467 129 467 l 249 467 l 249 543 q 239 592 249 575 q 199 608 229 608 q 158 592 168 608 q 149 543 149 575 l 149 501 l 56 501 l 56 544 q 92 654 56 613 q 199 696 129 696 q 285 672 250 696 q 393 717 322 717 q 501 674 463 717 q 539 561 539 632 l 539 449 q 501 340 539 381 q 393 299 463 299 l 344 299 l 344 136 l 344 121 q 358 85 347 99 q 393 72 368 72 q 433 91 424 72 q 443 142 443 110 l 443 236 l 539 236 l 539 139 q 501 27 539 69 q 393 -15 463 -15 q 296 17 335 -15 q 199 -14 258 -14 m 149 139 q 199 71 149 71 q 239 90 229 71 q 249 139 249 108 l 249 379 l 199 379 q 158 363 168 379 q 149 315 149 346 l 149 139 m 343 568 q 344 544 344 561 l 344 389 l 393 389 q 433 406 424 389 q 443 456 443 424 l 443 560 q 433 609 443 592 q 393 626 424 626 q 355 611 365 626 q 343 568 344 596 z "},"ć":{"ha":401,"x_min":56,"x_max":346,"o":"m 200 -14 q 93 28 131 -14 q 56 140 56 71 l 56 563 q 93 676 56 633 q 200 718 131 718 q 308 676 269 718 q 346 563 346 633 l 346 450 l 250 450 l 250 561 q 240 610 250 593 q 200 628 231 628 q 160 610 169 628 q 150 561 150 593 l 150 143 q 160 92 150 111 q 200 74 169 74 q 240 92 231 74 q 250 143 250 111 l 250 238 l 346 238 l 346 140 q 308 28 346 71 q 200 -14 269 -14 z "},"č":{"ha":401,"x_min":56,"x_max":346,"o":"m 200 -14 q 93 28 131 -14 q 56 140 56 71 l 56 563 q 93 676 56 633 q 200 718 131 718 q 308 676 269 718 q 346 563 346 633 l 346 450 l 250 450 l 250 561 q 240 610 250 593 q 200 628 231 628 q 160 610 169 628 q 150 561 150 593 l 150 143 q 160 92 150 111 q 200 74 169 74 q 240 92 231 74 q 250 143 250 111 l 250 238 l 346 238 l 346 140 q 308 28 346 71 q 200 -14 269 -14 z "},"ç":{"ha":401,"x_min":51,"x_max":346,"o":"m 51 -194 q 139 -197 124 -197 q 195 -190 178 -197 q 222 -162 213 -183 q 226 -143 226 -153 q 192 -95 226 -115 q 104 -62 158 -75 l 136 -3 q 76 51 97 14 q 56 140 56 89 l 56 563 q 93 676 56 633 q 200 718 131 718 q 308 676 269 718 q 346 563 346 633 l 346 450 l 250 450 l 250 561 q 240 610 250 593 q 200 628 231 628 q 160 610 169 628 q 150 561 150 593 l 150 143 q 160 92 150 111 q 200 74 169 74 q 240 92 231 74 q 250 143 250 111 l 250 238 l 346 238 l 346 140 q 315 38 346 79 q 229 -11 285 -3 l 219 -31 q 301 -78 275 -49 q 326 -144 326 -108 q 267 -246 326 -214 q 118 -278 208 -278 q 51 -274 85 -278 l 51 -194 z "},"ċ":{"ha":401,"x_min":56,"x_max":346,"o":"m 200 -14 q 93 28 131 -14 q 56 140 56 71 l 56 563 q 93 676 56 633 q 200 718 131 718 q 308 676 269 718 q 346 563 346 633 l 346 450 l 250 450 l 250 561 q 240 610 250 593 q 200 628 231 628 q 160 610 169 628 q 150 561 150 593 l 150 143 q 160 92 150 111 q 200 74 169 74 q 240 92 231 74 q 250 143 250 111 l 250 238 l 346 238 l 346 140 q 308 28 346 71 q 200 -14 269 -14 z "},"ð":{"ha":506,"x_min":56,"x_max":450,"o":"m 163 428 l 56 428 l 56 524 l 163 524 l 163 917 l 278 917 q 411 880 372 917 q 450 768 450 843 l 450 149 q 411 36 450 72 q 278 0 372 0 l 163 0 l 163 428 m 257 85 q 324 92 303 85 q 350 111 344 99 q 356 149 356 124 l 356 768 q 350 806 356 793 q 324 824 344 818 q 257 831 303 831 l 257 524 l 340 524 l 340 428 l 257 428 l 257 85 z "},"ď":{"ha":401,"x_min":56,"x_max":346,"o":"m 201 -14 q 94 28 132 -14 q 56 140 56 71 l 56 563 q 94 676 56 633 q 201 718 132 718 q 250 711 226 718 l 250 917 l 346 917 l 346 140 q 308 28 346 71 q 201 -14 271 -14 m 151 143 q 161 92 151 111 q 201 74 171 74 q 242 92 232 74 q 251 143 251 111 l 250 585 q 201 628 246 628 q 161 610 171 628 q 151 561 151 593 l 151 143 z "},"đ":{"ha":483,"x_min":56,"x_max":450,"o":"m 163 428 l 56 428 l 56 524 l 163 524 l 163 917 l 278 917 q 411 880 372 917 q 450 768 450 843 l 450 149 q 411 36 450 72 q 278 0 372 0 l 163 0 l 163 428 m 257 85 q 324 92 303 85 q 350 111 344 99 q 356 149 356 124 l 356 768 q 350 806 356 793 q 324 824 344 818 q 257 831 303 831 l 257 524 l 340 524 l 340 428 l 257 428 l 257 85 z "},"é":{"ha":401,"x_min":56,"x_max":346,"o":"m 200 -14 q 93 28 131 -14 q 56 140 56 71 l 56 563 q 93 676 56 633 q 200 718 131 718 q 308 676 269 718 q 346 563 346 633 l 346 450 q 308 341 346 382 q 200 300 269 300 l 150 300 l 150 143 q 160 92 150 111 q 200 74 169 74 q 240 92 231 74 q 250 143 250 111 l 250 238 l 346 238 l 346 140 q 308 28 346 71 q 200 -14 269 -14 m 200 390 q 240 408 231 390 q 250 457 250 425 l 250 561 q 240 610 250 593 q 200 628 231 628 q 160 610 169 628 q 150 561 150 593 l 150 390 l 200 390 z "},"ě":{"ha":401,"x_min":56,"x_max":346,"o":"m 200 -14 q 93 28 131 -14 q 56 140 56 71 l 56 563 q 93 676 56 633 q 200 718 131 718 q 308 676 269 718 q 346 563 346 633 l 346 450 q 308 341 346 382 q 200 300 269 300 l 150 300 l 150 143 q 160 92 150 111 q 200 74 169 74 q 240 92 231 74 q 250 143 250 111 l 250 238 l 346 238 l 346 140 q 308 28 346 71 q 200 -14 269 -14 m 200 390 q 240 408 231 390 q 250 457 250 425 l 250 561 q 240 610 250 593 q 200 628 231 628 q 160 610 169 628 q 150 561 150 593 l 150 390 l 200 390 z "},"ê":{"ha":401,"x_min":56,"x_max":346,"o":"m 200 -14 q 93 28 131 -14 q 56 140 56 71 l 56 563 q 93 676 56 633 q 200 718 131 718 q 308 676 269 718 q 346 563 346 633 l 346 450 q 308 341 346 382 q 200 300 269 300 l 150 300 l 150 143 q 160 92 150 111 q 200 74 169 74 q 240 92 231 74 q 250 143 250 111 l 250 238 l 346 238 l 346 140 q 308 28 346 71 q 200 -14 269 -14 m 200 390 q 240 408 231 390 q 250 457 250 425 l 250 561 q 240 610 250 593 q 200 628 231 628 q 160 610 169 628 q 150 561 150 593 l 150 390 l 200 390 z "},"ë":{"ha":401,"x_min":54,"x_max":346,"o":"m 200 -14 q 93 28 131 -14 q 56 140 56 71 l 56 563 q 93 676 56 633 q 200 718 131 718 q 308 676 269 718 q 346 563 346 633 l 346 450 q 308 341 346 382 q 200 300 269 300 l 150 300 l 150 143 q 160 92 150 111 q 200 74 169 74 q 240 92 231 74 q 250 143 250 111 l 250 238 l 346 238 l 346 140 q 308 28 346 71 q 200 -14 269 -14 m 200 390 q 240 408 231 390 q 250 457 250 425 l 250 561 q 240 610 250 593 q 200 628 231 628 q 160 610 169 628 q 150 561 150 593 l 150 390 l 200 390 m 122 744 q 74 765 93 744 q 54 813 54 785 q 74 867 54 844 q 122 889 93 889 q 174 868 156 889 q 193 813 193 847 q 172 765 193 786 q 122 744 150 744 m 206 814 q 225 868 206 846 q 275 890 244 890 q 326 869 307 890 q 344 814 344 849 q 324 767 344 788 q 275 746 303 746 q 225 766 244 746 q 206 814 206 786 z "},"ė":{"ha":401,"x_min":56,"x_max":346,"o":"m 200 -14 q 93 28 131 -14 q 56 140 56 71 l 56 563 q 93 676 56 633 q 200 718 131 718 q 308 676 269 718 q 346 563 346 633 l 346 450 q 308 341 346 382 q 200 300 269 300 l 150 300 l 150 143 q 160 92 150 111 q 200 74 169 74 q 240 92 231 74 q 250 143 250 111 l 250 238 l 346 238 l 346 140 q 308 28 346 71 q 200 -14 269 -14 m 200 390 q 240 408 231 390 q 250 457 250 425 l 250 561 q 240 610 250 593 q 200 628 231 628 q 160 610 169 628 q 150 561 150 593 l 150 390 l 200 390 z "},"è":{"ha":401,"x_min":56,"x_max":346,"o":"m 200 -14 q 93 28 131 -14 q 56 140 56 71 l 56 563 q 93 676 56 633 q 200 718 131 718 q 308 676 269 718 q 346 563 346 633 l 346 450 q 308 341 346 382 q 200 300 269 300 l 150 300 l 150 143 q 160 92 150 111 q 200 74 169 74 q 240 92 231 74 q 250 143 250 111 l 250 238 l 346 238 l 346 140 q 308 28 346 71 q 200 -14 269 -14 m 200 390 q 240 408 231 390 q 250 457 250 425 l 250 561 q 240 610 250 593 q 200 628 231 628 q 160 610 169 628 q 150 561 150 593 l 150 390 l 200 390 z "},"ē":{"ha":401,"x_min":35,"x_max":368,"o":"m 200 -14 q 93 28 131 -14 q 56 140 56 71 l 56 563 q 93 676 56 633 q 200 718 131 718 q 308 676 269 718 q 346 563 346 633 l 346 450 q 308 341 346 382 q 200 300 269 300 l 150 300 l 150 143 q 160 92 150 111 q 200 74 169 74 q 240 92 231 74 q 250 143 250 111 l 250 238 l 346 238 l 346 140 q 308 28 346 71 q 200 -14 269 -14 m 200 390 q 240 408 231 390 q 250 457 250 425 l 250 561 q 240 610 250 593 q 200 628 231 628 q 160 610 169 628 q 150 561 150 593 l 150 390 l 200 390 m 35 864 l 368 864 l 368 768 l 35 768 l 35 864 z "},"ę":{"ha":401,"x_min":40,"x_max":346,"o":"m 200 390 q 240 408 231 390 q 250 457 250 425 l 250 561 q 240 610 250 593 q 200 628 231 628 q 160 610 169 628 q 150 561 150 593 l 150 390 l 200 390 m 46 -125 q 40 -89 40 -110 q 55 -29 40 -58 q 99 22 69 0 q 56 140 56 64 l 56 563 q 93 676 56 633 q 200 718 131 718 q 308 676 269 718 q 346 563 346 633 l 346 450 q 308 341 346 382 q 200 300 269 300 l 150 300 l 150 143 q 160 92 150 111 q 200 74 169 74 q 240 92 231 74 q 250 143 250 111 l 250 238 l 346 238 l 346 140 q 308 28 346 71 q 200 -14 269 -14 q 148 -46 167 -28 q 129 -83 129 -64 q 131 -94 129 -90 q 167 -112 136 -112 q 272 -85 201 -112 l 288 -168 q 171 -199 225 -199 q 90 -178 124 -199 q 46 -125 57 -157 z "},"ğ":{"ha":401,"x_min":32,"x_max":388,"o":"m 165 -247 l 204 -247 q 242 -233 233 -247 q 251 -187 251 -218 l 251 -7 q 200 -14 226 -14 q 93 28 131 -14 q 56 140 56 71 l 56 563 q 93 676 56 633 q 200 718 131 718 q 297 686 258 718 q 379 704 329 704 l 381 608 q 342 604 358 608 q 346 563 346 583 l 344 -189 q 210 -344 344 -344 l 165 -344 l 165 -247 m 150 143 q 160 92 150 111 q 200 74 169 74 q 240 92 231 74 q 250 143 250 111 l 250 561 q 240 610 250 593 q 200 628 231 628 q 160 610 169 628 q 150 561 150 593 l 150 143 z "},"ģ":{"ha":401,"x_min":56,"x_max":381,"o":"m 151 760 l 222 932 l 318 932 l 247 760 l 151 760 m 165 -247 l 204 -247 q 242 -233 233 -247 q 251 -187 251 -218 l 251 -7 q 200 -14 226 -14 q 93 28 131 -14 q 56 140 56 71 l 56 563 q 93 676 56 633 q 200 718 131 718 q 297 686 258 718 q 379 704 329 704 l 381 608 q 342 604 358 608 q 346 563 346 583 l 344 -189 q 210 -344 344 -344 l 165 -344 l 165 -247 m 150 143 q 160 92 150 111 q 200 74 169 74 q 240 92 231 74 q 250 143 250 111 l 250 561 q 240 610 250 593 q 200 628 231 628 q 160 610 169 628 q 150 561 150 593 l 150 143 z "},"ġ":{"ha":401,"x_min":56,"x_max":381,"o":"m 165 -247 l 204 -247 q 242 -233 233 -247 q 251 -187 251 -218 l 251 -7 q 200 -14 226 -14 q 93 28 131 -14 q 56 140 56 71 l 56 563 q 93 676 56 633 q 200 718 131 718 q 297 686 258 718 q 379 704 329 704 l 381 608 q 342 604 358 608 q 346 563 346 583 l 344 -189 q 210 -344 344 -344 l 165 -344 l 165 -247 m 150 143 q 160 92 150 111 q 200 74 169 74 q 240 92 231 74 q 250 143 250 111 l 250 561 q 240 610 250 593 q 200 628 231 628 q 160 610 169 628 q 150 561 150 593 l 150 143 z "},"ħ":{"ha":497,"x_min":56,"x_max":442,"o":"m 151 1 l 151 782 l 56 782 l 56 878 l 151 878 l 151 918 l 246 918 l 246 878 l 378 878 l 378 782 l 246 782 l 246 711 q 296 718 271 718 q 403 676 365 718 q 442 563 442 633 l 442 0 l 346 0 l 346 561 q 336 610 346 593 q 296 628 326 628 q 256 610 265 628 q 246 561 246 593 l 246 0 l 151 1 z "},"ı":{"ha":207,"x_min":56,"x_max":151,"o":"m 56 704 l 151 704 l 151 0 l 56 0 l 56 704 z "},"í":{"ha":278,"x_min":56,"x_max":222,"o":"m 57 704 l 153 704 l 153 0 l 57 0 l 57 704 z "},"î":{"ha":379,"x_min":56,"x_max":324,"o":"m 143 704 l 239 704 l 239 0 l 143 0 l 143 704 z "},"ï":{"ha":401,"x_min":56,"x_max":346,"o":"m 146 704 l 242 704 l 242 0 l 146 0 l 146 704 m 124 724 q 75 744 94 724 q 56 792 56 764 q 75 846 56 824 q 124 868 94 868 q 176 847 157 868 q 194 792 194 826 q 173 744 194 765 q 124 724 151 724 m 207 793 q 226 847 207 825 q 276 869 246 869 q 327 849 308 869 q 346 793 346 828 q 325 746 346 767 q 276 725 304 725 q 226 745 246 725 q 207 793 207 765 z "},"ì":{"ha":278,"x_min":56,"x_max":222,"o":"m 117 704 l 213 704 l 213 0 l 117 0 l 117 704 z "},"ī":{"ha":444,"x_min":56,"x_max":389,"o":"m 165 704 l 261 704 l 261 0 l 165 0 l 165 704 m 56 843 l 389 843 l 389 747 l 56 747 l 56 843 z "},"į":{"ha":358,"x_min":56,"x_max":303,"o":"m 303 -158 q 186 -189 240 -189 q 106 -168 139 -189 q 61 -115 72 -147 q 56 -78 56 -100 q 80 -3 56 -39 q 154 57 104 33 l 154 704 l 250 704 l 250 0 l 226 0 q 167 -33 189 -14 q 144 -74 144 -53 q 146 -85 144 -81 q 182 -103 151 -103 q 288 -75 217 -103 l 303 -158 z "},"ķ":{"ha":479,"x_min":56,"x_max":424,"o":"m 56 917 l 151 917 l 151 440 l 288 704 l 383 704 l 189 335 l 424 0 l 328 0 l 151 238 l 151 0 l 56 0 l 56 917 z "},"ĺ":{"ha":282,"x_min":56,"x_max":226,"o":"m 56 917 l 150 917 l 150 0 l 56 0 l 56 917 z "},"ľ":{"ha":379,"x_min":56,"x_max":324,"o":"m 142 917 l 236 917 l 236 0 l 142 0 l 142 917 z "},"ļ":{"ha":278,"x_min":56,"x_max":222,"o":"m 115 917 l 210 917 l 210 0 l 115 0 l 115 917 z "},"ł":{"ha":463,"x_min":56,"x_max":407,"o":"m 169 450 l 100 418 l 56 513 l 169 565 l 169 917 l 264 917 l 264 608 l 364 654 l 407 560 l 264 493 l 264 0 l 169 0 l 169 450 z "},"ń":{"ha":401,"x_min":56,"x_max":346,"o":"m 56 563 q 93 676 56 633 q 200 718 131 718 q 308 676 269 718 q 346 563 346 633 l 346 0 l 250 0 l 250 561 q 240 610 250 593 q 200 628 231 628 q 160 610 169 628 q 150 561 150 593 l 150 0 l 56 0 l 56 563 z "},"ň":{"ha":401,"x_min":56,"x_max":346,"o":"m 56 563 q 93 676 56 633 q 200 718 131 718 q 308 676 269 718 q 346 563 346 633 l 346 0 l 250 0 l 250 561 q 240 610 250 593 q 200 628 231 628 q 160 610 169 628 q 150 561 150 593 l 150 0 l 56 0 l 56 563 z "},"ņ":{"ha":401,"x_min":56,"x_max":346,"o":"m 56 563 q 93 676 56 633 q 200 718 131 718 q 308 676 269 718 q 346 563 346 633 l 346 0 l 250 0 l 250 561 q 240 610 250 593 q 200 628 231 628 q 160 610 169 628 q 150 561 150 593 l 150 0 l 56 0 l 56 563 z "},"ñ":{"ha":401,"x_min":10,"x_max":392,"o":"m 56 563 q 93 676 56 633 q 200 718 131 718 q 308 676 269 718 q 346 563 346 633 l 346 0 l 250 0 l 250 561 q 240 610 250 593 q 200 628 231 628 q 160 610 169 628 q 150 561 150 593 l 150 0 l 56 0 l 56 563 m 10 760 q 56 844 19 810 q 136 879 92 879 q 168 874 153 879 l 244 850 q 264 846 256 846 q 292 856 281 846 q 308 885 304 867 l 392 865 q 345 789 379 815 q 269 763 311 763 q 233 768 249 763 l 178 789 q 147 794 163 794 q 97 751 111 794 l 10 760 z "},"ŋ":{"ha":401,"x_min":56,"x_max":346,"o":"m 126 -106 q 215 -76 181 -106 q 250 3 250 -47 l 250 561 q 240 610 250 593 q 200 628 231 628 q 160 610 169 628 q 150 561 150 593 l 150 0 l 56 0 l 56 563 q 93 676 56 633 q 200 718 131 718 q 308 676 269 718 q 346 563 346 633 l 346 0 q 317 -104 346 -56 q 237 -181 288 -153 q 126 -210 186 -210 l 126 -106 z "},"ó":{"ha":401,"x_min":56,"x_max":346,"o":"m 200 -14 q 93 28 131 -14 q 56 140 56 71 l 56 563 q 93 676 56 633 q 200 718 131 718 q 308 676 269 718 q 346 563 346 633 l 346 140 q 308 28 346 71 q 200 -14 269 -14 m 150 143 q 160 92 150 111 q 200 74 169 74 q 240 92 231 74 q 250 143 250 111 l 250 561 q 240 610 250 593 q 200 628 231 628 q 160 610 169 628 q 150 561 150 593 l 150 143 z "},"ô":{"ha":401,"x_min":56,"x_max":346,"o":"m 200 -14 q 93 28 131 -14 q 56 140 56 71 l 56 563 q 93 676 56 633 q 200 718 131 718 q 308 676 269 718 q 346 563 346 633 l 346 140 q 308 28 346 71 q 200 -14 269 -14 m 150 143 q 160 92 150 111 q 200 74 169 74 q 240 92 231 74 q 250 143 250 111 l 250 561 q 240 610 250 593 q 200 628 231 628 q 160 610 169 628 q 150 561 150 593 l 150 143 z "},"ö":{"ha":401,"x_min":54,"x_max":346,"o":"m 200 -14 q 93 28 131 -14 q 56 140 56 71 l 56 563 q 93 676 56 633 q 200 718 131 718 q 308 676 269 718 q 346 563 346 633 l 346 140 q 308 28 346 71 q 200 -14 269 -14 m 150 143 q 160 92 150 111 q 200 74 169 74 q 240 92 231 74 q 250 143 250 111 l 250 561 q 240 610 250 593 q 200 628 231 628 q 160 610 169 628 q 150 561 150 593 l 150 143 m 122 753 q 74 773 93 753 q 54 821 54 793 q 74 875 54 853 q 122 897 93 897 q 174 876 156 897 q 193 821 193 856 q 172 774 193 794 q 122 753 150 753 m 206 822 q 225 876 206 854 q 275 899 244 899 q 326 878 307 899 q 344 822 344 857 q 324 775 344 796 q 275 754 303 754 q 225 774 244 754 q 206 822 206 794 z "},"ò":{"ha":401,"x_min":56,"x_max":346,"o":"m 200 -14 q 93 28 131 -14 q 56 140 56 71 l 56 563 q 93 676 56 633 q 200 718 131 718 q 308 676 269 718 q 346 563 346 633 l 346 140 q 308 28 346 71 q 200 -14 269 -14 m 150 143 q 160 92 150 111 q 200 74 169 74 q 240 92 231 74 q 250 143 250 111 l 250 561 q 240 610 250 593 q 200 628 231 628 q 160 610 169 628 q 150 561 150 593 l 150 143 z "},"ő":{"ha":401,"x_min":56,"x_max":385,"o":"m 200 -14 q 93 28 131 -14 q 56 140 56 71 l 56 563 q 93 676 56 633 q 200 718 131 718 q 308 676 269 718 q 346 563 346 633 l 346 140 q 308 28 346 71 q 200 -14 269 -14 m 150 143 q 160 92 150 111 q 200 74 169 74 q 240 92 231 74 q 250 143 250 111 l 250 561 q 240 610 250 593 q 200 628 231 628 q 160 610 169 628 q 150 561 150 593 l 150 143 z "},"ō":{"ha":401,"x_min":35,"x_max":368,"o":"m 200 -14 q 93 28 131 -14 q 56 140 56 71 l 56 563 q 93 676 56 633 q 200 718 131 718 q 308 676 269 718 q 346 563 346 633 l 346 140 q 308 28 346 71 q 200 -14 269 -14 m 150 143 q 160 92 150 111 q 200 74 169 74 q 240 92 231 74 q 250 143 250 111 l 250 561 q 240 610 250 593 q 200 628 231 628 q 160 610 169 628 q 150 561 150 593 l 150 143 m 35 872 l 368 872 l 368 776 l 35 776 l 35 872 z "},"ø":{"ha":642,"x_min":56,"x_max":586,"o":"m 325 -14 q 247 4 281 -14 l 161 -226 l 56 -226 l 182 113 q 181 140 181 122 l 181 563 q 218 676 181 633 q 325 718 256 718 q 401 700 371 718 l 481 914 l 586 914 l 468 597 q 471 563 471 575 l 471 140 q 433 28 471 71 q 325 -14 394 -14 m 367 608 q 325 628 354 628 q 285 610 294 628 q 275 561 275 593 l 275 363 l 367 608 m 282 99 q 325 74 293 74 q 365 92 356 74 q 375 143 375 111 l 375 347 l 282 99 z "},"õ":{"ha":401,"x_min":-12,"x_max":407,"o":"m 200 -14 q 93 28 131 -14 q 56 140 56 71 l 56 563 q 93 676 56 633 q 200 718 131 718 q 308 676 269 718 q 346 563 346 633 l 346 140 q 308 28 346 71 q 200 -14 269 -14 m 150 143 q 160 92 150 111 q 200 74 169 74 q 240 92 231 74 q 250 143 250 111 l 250 561 q 240 610 250 593 q 200 628 231 628 q 160 610 169 628 q 150 561 150 593 l 150 143 z "},"œ":{"ha":600,"x_min":56,"x_max":544,"o":"m 200 -14 q 93 28 131 -14 q 56 140 56 71 l 56 563 q 93 676 56 633 q 200 718 131 718 q 296 688 258 718 q 399 725 333 725 q 506 683 468 725 q 544 569 544 640 l 544 457 q 506 348 544 389 q 399 307 468 307 l 349 307 l 349 150 q 358 99 349 118 q 399 81 368 81 q 439 99 429 81 q 449 150 449 118 l 449 244 l 544 244 l 544 147 q 506 35 544 78 q 399 -7 468 -7 q 303 24 340 -7 q 200 -14 265 -14 m 150 143 q 160 92 150 111 q 200 74 169 74 q 240 92 231 74 q 250 143 250 111 l 250 561 q 240 610 250 593 q 200 628 231 628 q 160 610 169 628 q 150 561 150 593 l 150 143 m 399 397 q 439 415 429 397 q 449 464 449 432 l 449 568 q 439 617 449 600 q 399 635 429 635 q 358 617 368 635 q 349 568 349 600 l 349 397 l 399 397 z "},"þ":{"ha":401,"x_min":56,"x_max":346,"o":"m 56 917 l 150 917 l 150 815 q 200 822 175 822 q 308 780 269 822 q 346 667 346 738 l 346 244 q 308 133 346 175 q 200 90 269 90 q 150 97 175 90 l 150 0 l 56 0 l 56 917 m 150 247 q 160 197 150 215 q 200 178 169 178 q 240 197 231 178 q 250 247 250 215 l 250 665 q 240 715 250 697 q 200 732 231 732 q 160 715 169 732 q 150 665 150 697 l 150 247 z "},"ŕ":{"ha":401,"x_min":56,"x_max":346,"o":"m 143 768 l 214 940 l 310 940 l 239 768 l 143 768 m 56 563 q 94 676 56 633 q 201 718 132 718 q 308 676 271 718 q 346 563 346 633 l 346 450 l 251 450 l 251 561 q 242 610 251 593 q 201 628 232 628 q 161 610 171 628 q 151 561 151 593 l 150 0 l 56 0 l 56 563 z "},"ř":{"ha":401,"x_min":40,"x_max":346,"o":"m 56 563 q 94 676 56 633 q 201 718 132 718 q 308 676 271 718 q 346 563 346 633 l 346 450 l 251 450 l 251 561 q 242 610 251 593 q 201 628 232 628 q 161 610 171 628 q 151 561 151 593 l 150 0 l 56 0 l 56 563 z "},"ŗ":{"ha":401,"x_min":56,"x_max":346,"o":"m 56 563 q 94 676 56 633 q 201 718 132 718 q 308 676 271 718 q 346 563 346 633 l 346 450 l 251 450 l 251 561 q 242 610 251 593 q 201 628 232 628 q 161 610 171 628 q 151 561 151 593 l 150 0 l 56 0 l 56 563 z "},"ś":{"ha":403,"x_min":56,"x_max":347,"o":"m 200 -14 q 93 28 131 -14 q 56 142 56 71 l 56 260 l 150 260 l 150 143 q 160 94 150 111 q 200 76 169 76 q 240 94 231 76 q 250 143 250 111 l 250 247 q 240 291 250 276 q 200 314 231 306 q 92 374 128 332 q 57 483 57 415 l 57 563 q 94 676 57 633 q 201 718 132 718 q 309 676 271 718 q 347 563 347 633 l 347 450 l 251 450 l 251 561 q 242 610 251 593 q 201 628 232 628 q 161 610 171 628 q 151 561 151 593 l 151 482 q 167 433 151 451 q 210 404 182 414 q 315 347 283 376 q 346 254 346 317 l 346 142 q 308 28 346 71 q 200 -14 269 -14 z "},"š":{"ha":403,"x_min":56,"x_max":347,"o":"m 200 -14 q 93 28 131 -14 q 56 142 56 71 l 56 260 l 150 260 l 150 143 q 160 94 150 111 q 200 76 169 76 q 240 94 231 76 q 250 143 250 111 l 250 247 q 240 291 250 276 q 200 314 231 306 q 92 374 128 332 q 57 483 57 415 l 57 563 q 94 676 57 633 q 201 718 132 718 q 309 676 271 718 q 347 563 347 633 l 347 450 l 251 450 l 251 561 q 242 610 251 593 q 201 628 232 628 q 161 610 171 628 q 151 561 151 593 l 151 482 q 167 433 151 451 q 210 404 182 414 q 315 347 283 376 q 346 254 346 317 l 346 142 q 308 28 346 71 q 200 -14 269 -14 z "},"ş":{"ha":403,"x_min":50,"x_max":347,"o":"m 50 -204 q 138 -207 122 -207 q 194 -200 176 -207 q 221 -172 211 -193 q 225 -153 225 -162 q 191 -105 225 -125 q 103 -72 157 -85 l 140 -4 q 77 51 99 13 q 56 142 56 89 l 56 260 l 150 260 l 150 143 q 160 94 150 111 q 200 76 169 76 q 240 94 231 76 q 250 143 250 111 l 250 247 q 240 291 250 276 q 200 314 231 306 q 92 374 128 332 q 57 483 57 415 l 57 563 q 94 676 57 633 q 201 718 132 718 q 309 676 271 718 q 347 563 347 633 l 347 450 l 251 450 l 251 561 q 242 610 251 593 q 201 628 232 628 q 161 610 171 628 q 151 561 151 593 l 151 482 q 167 433 151 451 q 210 404 182 414 q 315 347 283 376 q 346 254 346 317 l 346 142 q 317 40 346 81 q 233 -11 288 -1 l 218 -40 q 299 -88 274 -58 q 325 -154 325 -118 q 266 -256 325 -224 q 117 -287 207 -287 q 50 -283 83 -287 l 50 -204 z "},"ș":{"ha":403,"x_min":56,"x_max":347,"o":"m 200 -14 q 93 28 131 -14 q 56 142 56 71 l 56 260 l 150 260 l 150 143 q 160 94 150 111 q 200 76 169 76 q 240 94 231 76 q 250 143 250 111 l 250 247 q 240 291 250 276 q 200 314 231 306 q 92 374 128 332 q 57 483 57 415 l 57 563 q 94 676 57 633 q 201 718 132 718 q 309 676 271 718 q 347 563 347 633 l 347 450 l 251 450 l 251 561 q 242 610 251 593 q 201 628 232 628 q 161 610 171 628 q 151 561 151 593 l 151 482 q 167 433 151 451 q 210 404 182 414 q 315 347 283 376 q 346 254 346 317 l 346 142 q 308 28 346 71 q 200 -14 269 -14 z "},"ß":{"ha":399,"x_min":56,"x_max":343,"o":"m 56 788 q 94 876 56 838 q 190 915 133 915 q 291 880 251 915 q 331 786 331 844 l 331 563 q 319 519 331 533 q 272 492 308 506 q 343 393 343 471 l 343 142 q 312 40 343 74 q 204 0 281 6 l 204 85 q 241 99 233 88 q 249 142 249 111 l 249 393 q 238 421 249 413 q 204 432 226 429 l 204 521 q 235 563 235 528 l 235 788 q 225 820 235 810 q 193 831 215 831 q 160 821 171 831 q 150 788 150 811 l 151 0 l 56 0 l 56 788 z "},"ŧ":{"ha":400,"x_min":56,"x_max":344,"o":"m 124 410 l 56 410 l 56 506 l 124 506 l 124 917 l 218 917 l 219 704 l 319 704 l 319 621 l 219 621 l 219 506 l 344 506 l 344 410 l 219 410 l 219 0 l 124 0 l 124 410 z "},"ť":{"ha":307,"x_min":15,"x_max":283,"o":"m 56 917 l 150 917 l 151 704 l 251 704 l 251 621 l 151 621 l 151 0 l 56 0 l 56 917 z "},"ţ":{"ha":307,"x_min":-60,"x_max":251,"o":"m -60 -203 q 28 -206 13 -206 q 84 -199 67 -206 q 111 -171 101 -192 q 115 -151 115 -161 q 81 -103 115 -124 q -7 -71 47 -83 l 56 46 l 56 917 l 150 917 l 151 704 l 251 704 l 251 621 l 151 621 l 151 0 l 128 0 l 108 -39 q 190 -87 164 -57 q 215 -153 215 -117 q 156 -254 215 -222 q 7 -286 97 -286 q -60 -282 -26 -286 l -60 -203 z "},"ț":{"ha":307,"x_min":44,"x_max":251,"o":"m 56 917 l 150 917 l 151 704 l 251 704 l 251 621 l 151 621 l 151 0 l 56 0 l 56 917 z "},"ú":{"ha":401,"x_min":56,"x_max":346,"o":"m 200 -14 q 93 28 131 -14 q 56 142 56 71 l 56 704 l 150 704 l 150 143 q 160 94 150 111 q 200 76 169 76 q 240 94 231 76 q 250 143 250 111 l 250 704 l 346 704 l 346 142 q 308 28 346 71 q 200 -14 269 -14 z "},"û":{"ha":401,"x_min":56,"x_max":346,"o":"m 200 -14 q 93 28 131 -14 q 56 142 56 71 l 56 704 l 150 704 l 150 143 q 160 94 150 111 q 200 76 169 76 q 240 94 231 76 q 250 143 250 111 l 250 704 l 346 704 l 346 142 q 308 28 346 71 q 200 -14 269 -14 z "},"ü":{"ha":401,"x_min":54,"x_max":346,"o":"m 200 -14 q 93 28 131 -14 q 56 142 56 71 l 56 704 l 150 704 l 150 143 q 160 94 150 111 q 200 76 169 76 q 240 94 231 76 q 250 143 250 111 l 250 704 l 346 704 l 346 142 q 308 28 346 71 q 200 -14 269 -14 m 122 753 q 74 773 93 753 q 54 821 54 793 q 74 875 54 853 q 122 897 93 897 q 174 876 156 897 q 193 821 193 856 q 172 774 193 794 q 122 753 150 753 m 206 822 q 225 876 206 854 q 275 899 244 899 q 326 878 307 899 q 344 822 344 857 q 324 775 344 796 q 275 754 303 754 q 225 774 244 754 q 206 822 206 794 z "},"ù":{"ha":401,"x_min":56,"x_max":346,"o":"m 200 -14 q 93 28 131 -14 q 56 142 56 71 l 56 704 l 150 704 l 150 143 q 160 94 150 111 q 200 76 169 76 q 240 94 231 76 q 250 143 250 111 l 250 704 l 346 704 l 346 142 q 308 28 346 71 q 200 -14 269 -14 z "},"ű":{"ha":401,"x_min":56,"x_max":385,"o":"m 200 -14 q 93 28 131 -14 q 56 142 56 71 l 56 704 l 150 704 l 150 143 q 160 94 150 111 q 200 76 169 76 q 240 94 231 76 q 250 143 250 111 l 250 704 l 346 704 l 346 142 q 308 28 346 71 q 200 -14 269 -14 z "},"ū":{"ha":401,"x_min":35,"x_max":368,"o":"m 200 -14 q 93 28 131 -14 q 56 142 56 71 l 56 704 l 150 704 l 150 143 q 160 94 150 111 q 200 76 169 76 q 240 94 231 76 q 250 143 250 111 l 250 704 l 346 704 l 346 142 q 308 28 346 71 q 200 -14 269 -14 m 35 872 l 368 872 l 368 776 l 35 776 l 35 872 z "},"ų":{"ha":401,"x_min":56,"x_max":346,"o":"m 304 -167 q 188 -197 242 -197 q 107 -176 140 -197 q 63 -124 74 -156 q 57 -87 57 -108 q 106 15 57 -28 q 56 142 56 57 l 56 704 l 150 704 l 150 143 q 160 94 150 111 q 200 76 169 76 q 240 94 231 76 q 250 143 250 111 l 250 704 l 346 704 l 346 142 q 312 33 346 75 q 215 -14 278 -8 q 146 -81 146 -43 q 147 -93 146 -89 q 183 -111 153 -111 q 289 -83 218 -111 l 304 -167 z "},"ů":{"ha":401,"x_min":56,"x_max":346,"o":"m 200 -14 q 93 28 131 -14 q 56 142 56 71 l 56 704 l 150 704 l 150 143 q 160 94 150 111 q 200 76 169 76 q 240 94 231 76 q 250 143 250 111 l 250 704 l 346 704 l 346 142 q 308 28 346 71 q 200 -14 269 -14 z "},"ẃ":{"ha":597,"x_min":56,"x_max":542,"o":"m 56 704 l 151 704 l 203 296 l 250 704 l 347 704 l 399 296 l 446 704 l 542 704 l 451 0 l 347 0 l 300 347 l 256 0 l 151 0 l 56 704 z "},"ŵ":{"ha":597,"x_min":56,"x_max":542,"o":"m 56 704 l 151 704 l 203 296 l 250 704 l 347 704 l 399 296 l 446 704 l 542 704 l 451 0 l 347 0 l 300 347 l 256 0 l 151 0 l 56 704 z "},"ẅ":{"ha":597,"x_min":56,"x_max":542,"o":"m 56 704 l 151 704 l 203 296 l 250 704 l 347 704 l 399 296 l 446 704 l 542 704 l 451 0 l 347 0 l 300 347 l 256 0 l 151 0 l 56 704 m 224 736 q 175 756 194 736 q 156 804 156 776 q 175 858 156 836 q 224 881 194 881 q 276 860 257 881 q 294 804 294 839 q 273 757 294 778 q 224 736 251 736 m 307 806 q 326 860 307 838 q 376 882 346 882 q 427 861 408 882 q 446 806 446 840 q 425 758 446 779 q 376 738 404 738 q 326 758 346 738 q 307 806 307 778 z "},"ẁ":{"ha":597,"x_min":56,"x_max":542,"o":"m 56 704 l 151 704 l 203 296 l 250 704 l 347 704 l 399 296 l 446 704 l 542 704 l 451 0 l 347 0 l 300 347 l 256 0 l 151 0 l 56 704 z "},"ý":{"ha":401,"x_min":56,"x_max":346,"o":"m 158 0 l 56 704 l 151 704 l 204 301 l 250 704 l 346 704 l 254 0 l 213 -344 l 117 -344 l 158 0 z "},"ŷ":{"ha":401,"x_min":56,"x_max":346,"o":"m 158 0 l 56 704 l 151 704 l 204 301 l 250 704 l 346 704 l 254 0 l 213 -344 l 117 -344 l 158 0 z "},"ÿ":{"ha":401,"x_min":47,"x_max":346,"o":"m 158 0 l 56 704 l 151 704 l 204 301 l 250 704 l 346 704 l 254 0 l 213 -344 l 117 -344 l 158 0 m 115 735 q 67 755 86 735 q 47 803 47 775 q 67 857 47 835 q 115 879 86 879 q 167 858 149 879 q 186 803 186 838 q 165 756 186 776 q 115 735 143 735 m 199 804 q 218 858 199 836 q 268 881 238 881 q 319 860 300 881 q 338 804 338 839 q 317 757 338 778 q 268 736 296 736 q 218 756 238 736 q 199 804 199 776 z "},"ỳ":{"ha":401,"x_min":56,"x_max":346,"o":"m 158 0 l 56 704 l 151 704 l 204 301 l 250 704 l 346 704 l 254 0 l 213 -344 l 117 -344 l 158 0 z "},"ź":{"ha":369,"x_min":56,"x_max":314,"o":"m 56 86 l 224 618 l 56 618 l 56 704 l 314 704 l 314 618 l 149 86 l 314 86 l 314 0 l 56 0 l 56 86 z "},"ž":{"ha":369,"x_min":49,"x_max":317,"o":"m 56 86 l 224 618 l 56 618 l 56 704 l 314 704 l 314 618 l 149 86 l 314 86 l 314 0 l 56 0 l 56 86 z "},"ż":{"ha":369,"x_min":56,"x_max":314,"o":"m 56 86 l 224 618 l 56 618 l 56 704 l 314 704 l 314 618 l 149 86 l 314 86 l 314 0 l 56 0 l 56 86 z "},"μ":{"ha":451,"x_min":56,"x_max":396,"o":"m 56 704 l 150 704 l 150 143 q 160 94 150 111 q 200 76 169 76 q 240 94 231 76 q 250 143 250 111 l 250 704 l 346 704 l 346 142 q 356 87 346 106 q 396 68 365 68 l 396 -22 q 293 15 333 -22 q 200 -14 258 -14 q 150 -7 175 -14 l 150 -108 l 56 -108 l 56 704 z "},"̈":{"ha":0,"x_min":56,"x_max":346,"o":"m 124 765 q 75 785 94 765 q 56 833 56 806 q 75 888 56 865 q 124 910 94 910 q 176 889 157 910 q 194 833 194 868 q 173 786 194 807 q 124 765 151 765 m 207 835 q 226 889 207 867 q 276 911 246 911 q 327 890 308 911 q 346 835 346 869 q 325 788 346 808 q 276 767 304 767 q 226 787 246 767 q 207 835 207 807 z "},"̇":{"ha":0,"x_min":56,"x_max":196,"o":"m 125 776 q 76 797 96 776 q 56 846 56 818 q 76 894 56 872 q 125 917 97 917 q 176 896 157 917 q 196 846 196 875 q 174 797 196 818 q 125 776 153 776 z "},"̀":{"ha":0,"x_min":56,"x_max":222,"o":"m 56 888 l 151 888 l 222 715 l 126 715 l 56 888 z "},"́":{"ha":0,"x_min":56,"x_max":222,"o":"m 56 717 l 126 889 l 222 889 l 151 717 l 56 717 z "},"̋":{"ha":0,"x_min":56,"x_max":346,"o":"m 250 896 l 346 896 l 265 715 l 167 715 l 250 896 m 139 896 l 235 896 l 154 715 l 56 715 l 139 896 z "},"̂":{"ha":0,"x_min":56,"x_max":324,"o":"m 192 931 l 324 704 l 228 706 l 192 776 l 151 704 l 56 704 l 192 931 z "},"̌":{"ha":0,"x_min":56,"x_max":324,"o":"m 151 922 l 192 850 l 228 921 l 324 922 l 192 696 l 56 922 l 151 922 z "},"̆":{"ha":0,"x_min":56,"x_max":411,"o":"m 233 769 q 121 813 168 769 q 56 936 74 857 l 151 936 q 189 878 169 896 q 233 860 208 860 q 315 936 286 860 l 411 936 q 233 769 360 769 z "},"̊":{"ha":0,"x_min":56,"x_max":275,"o":"m 165 669 q 85 707 114 669 q 56 789 56 744 q 85 873 56 836 q 167 910 114 910 q 247 873 218 910 q 275 789 275 836 q 246 707 275 744 q 165 669 217 669 m 122 789 q 134 760 122 775 q 165 744 146 744 q 197 760 185 744 q 208 789 208 775 q 197 821 208 807 q 165 835 185 835 q 133 821 144 835 q 122 789 122 807 z "},"̃":{"ha":0,"x_min":86,"x_max":506,"o":"m 86 711 q 136 803 97 765 q 224 840 175 840 q 260 835 243 840 l 343 808 q 364 804 354 804 q 395 815 382 804 q 414 847 408 826 l 506 825 q 454 742 492 771 q 371 713 417 713 q 331 719 351 713 l 271 742 q 236 749 250 749 q 182 701 197 749 l 86 711 z "},"̄":{"ha":0,"x_min":56,"x_max":389,"o":"m 56 963 l 389 963 l 389 867 l 56 867 l 56 963 z "},"̒":{"ha":0,"x_min":56,"x_max":217,"o":"m 121 915 l 217 915 l 151 743 l 56 743 l 121 915 z "},"̦":{"ha":0,"x_min":139,"x_max":306,"o":"m 139 -297 l 210 -125 l 306 -125 l 235 -297 l 139 -297 z "},"̧":{"ha":0,"x_min":56,"x_max":331,"o":"m 56 -104 q 143 -107 128 -107 q 199 -100 182 -107 q 226 -72 217 -93 q 231 -53 231 -62 q 197 -5 231 -25 q 108 28 163 15 l 171 144 l 267 144 l 224 60 q 305 12 279 42 q 331 -54 331 -18 q 272 -156 331 -124 q 122 -187 213 -187 q 56 -183 89 -187 l 56 -104 z "},"̨":{"ha":0,"x_min":56,"x_max":303,"o":"m 303 -111 q 186 -142 240 -142 q 106 -121 139 -142 q 61 -68 72 -100 q 56 -31 56 -53 q 94 62 56 18 q 214 125 133 106 l 228 119 l 247 54 q 172 19 200 40 q 144 -26 144 -3 q 182 -56 144 -56 q 288 -28 217 -56 l 303 -111 z "},"˜":{"ha":500,"x_min":86,"x_max":506,"o":"m 86 711 q 136 803 97 765 q 224 840 175 840 q 260 835 243 840 l 343 808 q 364 804 354 804 q 395 815 382 804 q 414 847 408 826 l 506 825 q 454 742 492 771 q 371 713 417 713 q 331 719 351 713 l 271 742 q 236 749 250 749 q 182 701 197 749 l 86 711 z "}}}
